<?xml version="1.0" encoding="UTF-8" standalone="no"?>
<svg
   xmlns:dc="http://purl.org/dc/elements/1.1/"
   xmlns:cc="http://creativecommons.org/ns#"
   xmlns:rdf="http://www.w3.org/1999/02/22-rdf-syntax-ns#"
   xmlns:svg="http://www.w3.org/2000/svg"
   xmlns="http://www.w3.org/2000/svg"
   xmlns:sodipodi="http://sodipodi.sourceforge.net/DTD/sodipodi-0.dtd"
   xmlns:inkscape="http://www.inkscape.org/namespaces/inkscape"
   version="1.1"
   id="Layer_1"
   x="0px"
   y="0px"
   viewBox="0 0 2272 1872"
   enable-background="new 0 0 2272 1872"
   xml:space="preserve"
   sodipodi:docname="page-no-found.svg"
   inkscape:version="1.0.1 (3bc2e813f5, 2020-09-07)"><metadata
   id="metadata1621"><rdf:RDF><cc:Work
       rdf:about=""><dc:format>image/svg+xml</dc:format><dc:type
         rdf:resource="http://purl.org/dc/dcmitype/StillImage" /><dc:title></dc:title></cc:Work></rdf:RDF></metadata><defs
   id="defs1619" /><sodipodi:namedview
   pagecolor="#ffffff"
   bordercolor="#666666"
   borderopacity="1"
   objecttolerance="10"
   gridtolerance="10"
   guidetolerance="10"
   inkscape:pageopacity="0"
   inkscape:pageshadow="2"
   inkscape:window-width="1920"
   inkscape:window-height="1016"
   id="namedview1617"
   showgrid="false"
   inkscape:zoom="0.39964789"
   inkscape:cx="940.73554"
   inkscape:cy="946.80334"
   inkscape:window-x="0"
   inkscape:window-y="27"
   inkscape:window-maximized="1"
   inkscape:current-layer="Layer_1" />

<path
   fill="#B25226"
   d="M1884.9,563.1L1779.7,604c-9.6-202.9-177.7-364.3-383.2-363.1c-210.1,1.2-379.2,171.3-379.2,381.4  c0,210.6,170.8,381.4,381.4,381.4c196.2,0,357.8-148.2,379-338.7h47c20.6,0,38.7-13.8,44.2-33.7  C1875.8,606.2,1884.3,576.3,1884.9,563.1z"
   id="path1248"
   style="fill:#84be58;fill-opacity:1" />
<path
   fill="#B25226"
   d="M1426.8,1449.4c0.1-0.1,0.1-0.1,0.2-0.2c0.3-0.4,0.6-0.7,1-1.1c1-1.2,1.9-2.4,2.8-3.6c1-1.4,2-2.8,2.9-4.3  c0.1-0.1,0.2-0.3,0.3-0.4c0,0,0,0,0,0c2.5-3.9,4.5-8.1,5.9-12.4c0,0,0-0.1,0-0.1c1.9-5.7,2.8-11.7,2.5-18c0-0.9-0.1-1.8-0.2-2.6  c0-0.2,0-0.3-0.1-0.5c-0.1-0.9-0.2-1.7-0.4-2.6c0-0.1,0-0.2-0.1-0.3c-0.2-0.9-0.3-1.8-0.5-2.6c0,0,0,0,0-0.1  c-0.2-0.9-0.4-1.9-0.7-2.8c0,0,0-0.1,0-0.1c-1.5-5.6-3.6-11-5.9-16.4c-9.7-23.2-21-45.7-33.8-67.3c-5.9-10-12.6-20.2-22.7-26  c-8.2-4.7-17.9-5.9-27.3-6.5c-19-1.2-38.2,0.1-56.8,3.7c-0.1,0-0.1,0-0.2,0c-1.5,0.3-3.1,0.6-4.6,1c0,0,0,0,0,0  c-3.4,0.7-6.8,1.6-10.1,2.6c-1.3-8.9-3.9-17.6-7.7-25.8c0,0,0-0.1,0-0.1c-1.6-3.4-3.4-6.8-5.4-10c0,0,0,0,0,0c-0.6-1-1.3-2-2-3  c-0.1-0.1-0.1-0.2-0.2-0.3c-0.6-0.9-1.3-1.9-2-2.8c-0.1-0.1-0.1-0.2-0.2-0.2c-1.5-2-3-3.9-4.6-5.8c-0.1-0.1-0.1-0.1-0.2-0.2  c-0.7-0.8-1.4-1.6-2.2-2.4c-0.2-0.2-0.4-0.4-0.6-0.6c-0.6-0.7-1.3-1.3-2-2c-0.2-0.2-0.4-0.4-0.6-0.6c-0.7-0.7-1.4-1.4-2.2-2  c-0.1-0.1-0.3-0.3-0.4-0.4c-0.9-0.8-1.7-1.5-2.6-2.3l3.3-17c0.9-160-54.6-323.2-73.8-377.2c-3.7-10.3-13.7-20-24.1-23.3  c-1.6-0.5-3.4-1.1-5.3-1.7c-4.3-9-12.9-17-21.8-19.8c-54.9-18-227.6-68.9-392.5-64.2c-19.7,0.2-39.5,1.2-59,2.9  c-12-21.4-28.8-42.6-38.3-58.8c-0.2-0.3-0.4-0.6-0.6-0.9c0.1-1.2,0.1-2.4,0.2-3.6c0.3-6.4,0.6-12.8-0.6-19.1c0-0.2,0-0.3,0-0.5  c0,0,0,0,0,0c0.2-4.5,0.4-9,0.6-13.4c0.3-6.4,0.6-12.9-0.6-19.1c-2.9-14.9-13.6-26.9-24.8-37.2c-24.4-22.5-54.3-41.4-87.4-43.7  c-17.1-1.2-35,3.2-49.6,12c0,0,0,0,0,0c-0.9,0.5-1.8,1.1-2.6,1.7c0,0,0,0-0.1,0c-0.8,0.6-1.7,1.1-2.5,1.7c0,0-0.1,0.1-0.1,0.1  c-0.8,0.6-1.6,1.2-2.4,1.8c-0.1,0.1-0.1,0.1-0.2,0.2c-0.7,0.6-1.5,1.2-2.2,1.8c-0.1,0.1-0.2,0.1-0.3,0.2c-0.7,0.6-1.4,1.2-2,1.8  c-0.1,0.1-0.2,0.2-0.3,0.3c-0.6,0.6-1.2,1.2-1.9,1.8c-0.1,0.1-0.3,0.3-0.4,0.4c-0.6,0.6-1.1,1.2-1.7,1.8c-0.1,0.2-0.3,0.3-0.4,0.5  c-0.5,0.6-1,1.2-1.5,1.8c-0.2,0.2-0.3,0.4-0.5,0.6c-0.5,0.6-0.9,1.2-1.4,1.8c-0.1,0.2-0.3,0.4-0.4,0.6c-14.1,3.6-27.3,10.9-38,21.3  c0,0,0,0-0.1,0.1c-0.8,0.8-1.6,1.6-2.4,2.5c-0.1,0.1-0.1,0.1-0.2,0.2c-1.1,1.2-2.2,2.4-3.2,3.7c0,0-0.1,0.1-0.1,0.1  c-0.4,0.5-0.7,0.9-1.1,1.4c-0.1,0.1-0.2,0.3-0.3,0.4c-0.7,0.9-1.3,1.7-2,2.6c-0.1,0.1-0.1,0.2-0.2,0.3c-0.1,0.1-0.1,0.2-0.2,0.3  c-0.1,0.1-0.2,0.3-0.3,0.4c-0.4,0.6-0.8,1.2-1.2,1.8c-0.1,0.1-0.2,0.3-0.3,0.4c-0.1,0.1-0.2,0.2-0.2,0.4c0,0,0,0.1-0.1,0.1  c-0.5,0.8-1,1.5-1.4,2.3c-0.1,0.1-0.2,0.3-0.2,0.4c-0.1,0.2-0.2,0.3-0.3,0.5c-0.5,0.9-1,1.8-1.5,2.7c0,0,0,0,0,0  c-7.8,14.5-15.1,29.2-21.8,44.1c-8.2,18.2-15.7,36.9-19.7,56.5c-2.8,13.9-3.8,28-3.2,42.1c0,0.1,0,0.3,0,0.4  c0.1,2.8,0.3,5.7,0.6,8.5c-0.1,1-0.2,2-0.3,3c-0.1,1.8-0.2,3.5-0.3,5.3c-0.2,3.5-0.2,7.1-0.2,10.6c0,2.9,0.2,5.8,0.3,8.8  c0.4,7,1.2,14.1,2.3,21.1c-3.6,3.9-6.5,8.3-8.1,12.9c-19.3,53.5-75.5,216.1-76.7,375.9c0,2.1-0.1,4.2-0.1,6.3  c-0.1,5.2-0.1,10.4-0.1,15.6c-0.7,164.4,57.1,334.9,76.8,389.9c3.6,10.2,13.4,19.8,23.6,23.3c55.4,19.4,227.9,75.8,394.3,73.8  c163.1,0.8,330-54.7,384.2-73.7c10.2-3.6,19.9-13.2,23.5-23.3l5.1-26c2.1-0.1,4.3-0.2,6.4-0.3c0.2,0,0.4,0,0.6,0  c2.6-0.2,5.3-0.4,7.9-0.7c7.2-0.8,14.4-1.9,21.5-3.5c1.4-0.3,2.8-0.6,4.1-1c8.3-2.1,16.4-4.8,24.3-8.3l0,0h0c0,0,0,0,0,0  c-0.7-0.7-1.4-1.3-2-2c0,0,0,0,0,0c0,0,0,0,0.1,0c0.4,0,0.8-0.1,1.1-0.1c0.3,0,0.6,0,0.9-0.1c0.4,0,0.8-0.1,1.2-0.2  c0.3,0,0.5-0.1,0.8-0.1c0.4-0.1,0.9-0.1,1.3-0.2c0.2,0,0.5-0.1,0.7-0.1c0.5-0.1,0.9-0.2,1.4-0.3c0.2,0,0.4-0.1,0.6-0.1  c0.5-0.1,1-0.2,1.4-0.4c0.2,0,0.4-0.1,0.5-0.1c0.5-0.1,1-0.3,1.5-0.4c0.1,0,0.3-0.1,0.4-0.1c0.5-0.2,1-0.3,1.6-0.5  c0.1,0,0.2-0.1,0.4-0.1c0.5-0.2,1.1-0.4,1.6-0.6c0.1,0,0.2-0.1,0.3-0.1c0.6-0.2,1.1-0.4,1.7-0.7c0.1,0,0.1-0.1,0.2-0.1  c0.6-0.2,1.1-0.5,1.7-0.7c0.1,0,0.1,0,0.2-0.1c0.6-0.3,1.2-0.5,1.8-0.8c0,0,0.1,0,0.1,0c0.6-0.3,1.2-0.6,1.8-0.9c0,0,0,0,0,0  c0.6-0.3,1.2-0.6,1.8-1c0,0,0,0,0,0l0,0c10.2-5.6,19.8-13.4,28.6-21c2.1-1.8,4.2-3.8,4.6-6.5c0.3-2.3-1-4.6-2.2-6.6  c-1.5-2.6-2.9-5.2-4.3-7.8c0,0,0,0,0,0c1.5-0.4,3.1-0.8,4.6-1.2c2.6-0.7,5.2-1.4,7.8-2.1c16.5-4.6,32.7-10.3,48.4-17  c11.8-5,23.4-10.6,34.7-16.7c0,0,0,0,0,0c0.8-0.4,1.6-0.9,2.3-1.3c0.3-0.1,0.5-0.3,0.8-0.4c0.5-0.3,1.1-0.6,1.6-0.9  c0.3-0.2,0.6-0.4,0.9-0.5c0.5-0.3,1-0.6,1.5-0.9c0.3-0.2,0.6-0.4,0.9-0.6c0.5-0.3,1-0.6,1.5-0.9c0.3-0.2,0.6-0.4,0.9-0.5  c0.7-0.5,1.5-0.9,2.2-1.4c0.3-0.2,0.6-0.4,1-0.6c0.4-0.3,0.9-0.6,1.3-0.9c0.4-0.3,0.8-0.5,1.2-0.8c0.4-0.3,0.7-0.5,1.1-0.8  c0.2-0.1,0.4-0.3,0.6-0.4c0.2-0.1,0.4-0.3,0.6-0.4c0.3-0.2,0.6-0.5,1-0.7c0.4-0.3,0.9-0.6,1.3-0.9c0.3-0.2,0.5-0.4,0.8-0.6  c1.7-1.2,3.3-2.5,4.9-3.8c0.2-0.1,0.4-0.3,0.5-0.4c0.5-0.4,1-0.8,1.5-1.3c0.2-0.2,0.4-0.3,0.5-0.5c0.5-0.4,1-0.9,1.5-1.3  c0.1-0.1,0.2-0.2,0.4-0.3c0.4-0.4,0.8-0.7,1.2-1.1c1.9-1.8,3.7-3.6,5.4-5.5c0,0,0.1-0.1,0.1-0.1  C1425.8,1450.5,1426.3,1449.9,1426.8,1449.4z"
   id="path1250"
   style="fill:#84be58;fill-opacity:1" />

<g
   id="g1290">
	<path
   fill="#B25226"
   d="M923,392.6c-12.7-31.4-40-50.6-63.6-46.2l0,0c-0.6,0.1-1.2,0.2-1.8,0.4c-0.3,0.1-0.6,0.2-1,0.3   c-0.4,0.1-0.8,0.2-1.3,0.4c-0.3,0.1-0.5,0.2-0.8,0.2c-0.7,0.2-1.4,0.5-2.1,0.7c-1.6,0.6-3.1,1.4-4.5,2.2c-1.4,0.8-2.8,1.7-4.1,2.8   c-1.3,1-2.5,2.1-3.7,3.3c-1.2,1.2-2.3,2.4-3.3,3.8c-5.2,6.7-8.6,15.2-10.1,24.8c-0.5,2.9-0.7,5.8-0.8,8.9c0,1,0,2,0,3.1   c0,3.1,0.2,6.2,0.6,9.4c0.9,7.4,2.9,15,5.9,22.6c0.4,1,0.9,2.1,1.3,3.1c0.1,0.3,0.3,0.7,0.5,1c0.3,0.7,0.6,1.3,0.9,2   c0.2,0.4,0.4,0.8,0.6,1.2c0.3,0.6,0.6,1.2,0.9,1.7c0.2,0.4,0.4,0.8,0.7,1.2c0.3,0.5,0.6,1.1,0.9,1.6c0.2,0.4,0.5,0.8,0.7,1.2   c0.3,0.5,0.6,1,0.9,1.5c0.3,0.4,0.5,0.8,0.8,1.2c0.3,0.5,0.6,0.9,0.9,1.4c0.3,0.4,0.6,0.8,0.8,1.2c0.3,0.4,0.6,0.9,0.9,1.3   c0.3,0.4,0.6,0.8,0.9,1.2c0.3,0.4,0.6,0.8,1,1.2c0.3,0.4,0.6,0.8,0.9,1.2c0.3,0.4,0.6,0.8,1,1.1c0.3,0.4,0.7,0.8,1,1.2   c0.3,0.3,0.6,0.7,0.9,1c0.4,0.4,0.7,0.8,1.1,1.2c0.2,0.2,0.5,0.5,0.7,0.7c1.6,1.7,3.3,3.2,5.1,4.7c0.1,0.1,0.3,0.2,0.4,0.4   c0.5,0.4,1.1,0.9,1.6,1.3c0.2,0.1,0.4,0.3,0.6,0.4c0.5,0.4,1.1,0.8,1.6,1.2c0.2,0.1,0.4,0.3,0.6,0.4c0.5,0.4,1.1,0.7,1.6,1.1   c0.2,0.1,0.4,0.3,0.6,0.4c0.6,0.4,1.1,0.7,1.7,1c0.2,0.1,0.4,0.2,0.5,0.3c0.6,0.3,1.2,0.7,1.8,1c0.2,0.1,0.3,0.2,0.5,0.3   c0.6,0.3,1.2,0.6,1.9,0.9c0.1,0.1,0.2,0.1,0.4,0.2c0.7,0.3,1.3,0.6,2,0.9c0,0,0.1,0,0.1,0.1c7.5,3.2,15.3,4.4,22.8,3.4c0,0,0,0,0,0   c2.9-0.4,5.7-1.1,8.4-2.2C927.9,463.2,936.9,427.1,923,392.6z"
   id="path1278"
   style="fill:#84be58;fill-opacity:1" />
	<g
   id="g1288">
		<g
   id="g1284">
			<path
   fill="#542E12"
   d="M842.5,337.5c25-10.1,56.6,9.7,70.5,44.2c13.9,34.5,4.9,70.6-20.1,80.7c-25,10.1-56.6-9.7-70.5-44.2     C808.4,383.8,817.4,347.6,842.5,337.5z"
   id="path1280" />
			<path
   fill="#341B0F"
   d="M849.2,354.3c0,0,1.2,1.1,3.1,3.1c0.5,0.5,1,1.1,1.6,1.7c0.6,0.6,1.1,1.4,1.7,2.2     c1.2,1.6,2.5,3.5,3.6,5.7c0.6,1.1,1.2,2.2,1.8,3.4c0.6,1.2,1,2.4,1.6,3.7c1.1,2.6,1.9,5.3,2.8,8.2c0.8,2.9,1.5,5.8,2.2,8.8     c0.7,3,1.2,6,1.8,8.9c0.5,2.9,1.1,5.8,1.7,8.6c0.6,2.8,1.3,5.5,2,8.1c0.4,1.3,0.8,2.5,1.1,3.8c0.4,1.2,0.9,2.4,1.3,3.6     c0.7,2.4,1.9,4.4,2.7,6.5c0.4,1.1,0.9,2,1.4,2.9c0.5,0.9,0.9,1.8,1.4,2.6c0.8,1.7,1.7,3.1,2.4,4.2c1.4,2.3,2.1,3.8,2.1,3.8     s-1.4-0.7-3.9-2.1c-1.2-0.7-2.8-1.6-4.2-2.9c-1.5-1.3-3.3-2.7-5-4.5c-1.6-1.9-3.5-3.8-5-6.3c-0.8-1.2-1.6-2.4-2.4-3.7     c-0.7-1.3-1.4-2.7-2-4.1c-0.8-1.4-1.2-2.9-1.8-4.4c-0.6-1.5-1.1-3-1.5-4.6c-0.9-3.1-1.6-6.2-2.3-9.3c-0.5-3.1-1.1-6.2-1.4-9.2     c-0.4-3-0.8-5.9-1.1-8.7c-0.4-2.7-0.6-5.5-1.1-8c-0.2-1.3-0.3-2.5-0.5-3.7c-0.2-1.2-0.4-2.3-0.6-3.4c-0.3-2.3-0.8-4.2-1.2-6     c-0.2-0.9-0.4-1.8-0.5-2.6c-0.2-0.8-0.4-1.5-0.6-2.2C849.5,355.9,849.2,354.3,849.2,354.3z"
   id="path1282" />
		</g>
		<path
   fill="#442416"
   d="M841.8,423.3c-15.3-28.8-12.5-63.5,7.6-87.7c-2.3,0.4-4.6,1.1-6.9,2c-25,10.1-34,46.2-20.1,80.7    c12.8,31.7,40.5,51,64.3,46.1C867.8,456.5,851.7,441.9,841.8,423.3z"
   id="path1286" />
	</g>
</g>
<g
   id="g1304">
	<path
   fill="#B25226"
   d="M797.3,555.7c-6.2-28.7-26.6-49.1-47.5-48.8l0,0c-0.5,0-1.1,0-1.6,0.1c-0.3,0-0.6,0-0.9,0.1   c-0.4,0-0.8,0.1-1.1,0.1c-0.2,0-0.5,0.1-0.7,0.1c-0.6,0.1-1.2,0.2-1.9,0.3c-1.4,0.3-2.8,0.7-4.2,1.2c-1.3,0.5-2.7,1.1-3.9,1.7   c-1.3,0.7-2.5,1.4-3.7,2.3c-1.2,0.8-2.3,1.7-3.4,2.7c-5.4,4.9-9.6,11.7-12.3,19.7c-0.8,2.4-1.5,4.9-2,7.4c-0.2,0.9-0.3,1.7-0.5,2.6   c-0.4,2.6-0.7,5.3-0.9,8.1c-0.3,6.5,0.2,13.3,1.7,20.2c0.2,0.9,0.4,1.9,0.7,2.8c0.1,0.3,0.2,0.6,0.2,0.9c0.2,0.6,0.3,1.2,0.5,1.8   c0.1,0.4,0.2,0.7,0.3,1.1c0.2,0.5,0.3,1.1,0.5,1.6c0.1,0.4,0.3,0.8,0.4,1.1c0.2,0.5,0.3,1,0.5,1.5c0.1,0.4,0.3,0.8,0.4,1.2   c0.2,0.5,0.4,0.9,0.6,1.4c0.2,0.4,0.3,0.8,0.5,1.2c0.2,0.4,0.4,0.9,0.6,1.3c0.2,0.4,0.4,0.8,0.5,1.2c0.2,0.4,0.4,0.8,0.6,1.3   c0.2,0.4,0.4,0.8,0.6,1.1c0.2,0.4,0.4,0.8,0.6,1.2c0.2,0.4,0.4,0.8,0.6,1.1c0.2,0.4,0.4,0.7,0.6,1.1c0.2,0.4,0.5,0.8,0.7,1.2   c0.2,0.3,0.4,0.7,0.6,1c0.3,0.4,0.5,0.8,0.8,1.2c0.2,0.2,0.3,0.5,0.5,0.7c1.2,1.7,2.4,3.3,3.6,4.8c0.1,0.1,0.2,0.2,0.3,0.4   c0.4,0.5,0.8,0.9,1.2,1.3c0.1,0.2,0.3,0.3,0.4,0.5c0.4,0.4,0.8,0.8,1.2,1.2c0.1,0.2,0.3,0.3,0.4,0.5c0.4,0.4,0.8,0.8,1.2,1.2   c0.1,0.1,0.3,0.3,0.4,0.4c0.4,0.4,0.9,0.8,1.3,1.1c0.1,0.1,0.3,0.2,0.4,0.4c0.4,0.4,0.9,0.7,1.4,1.1c0.1,0.1,0.2,0.2,0.4,0.3   c0.5,0.4,1,0.7,1.4,1.1c0.1,0.1,0.2,0.1,0.3,0.2c0.5,0.4,1,0.7,1.6,1.1c0,0,0.1,0,0.1,0.1c6,3.8,12.4,6.1,19,6.3c0,0,0,0,0,0   c2.5,0.1,5-0.1,7.5-0.7C791,616.7,804.1,587.2,797.3,555.7z"
   id="path1292"
   style="fill:#84be58;fill-opacity:1" />
	<g
   id="g1302">
		<g
   id="g1298">
			<path
   fill="#542E12"
   d="M736.7,496.8c22.8-4.9,46.9,16.6,53.6,48.1c6.8,31.5-6.2,61-29.1,65.9c-22.8,4.9-46.9-16.6-53.6-48.1     C700.8,531.2,713.8,501.7,736.7,496.8z"
   id="path1294" />
			<path
   fill="#341B0F"
   d="M740,512.1c0,0,0.9,1.1,2.2,3.1c0.3,0.5,0.7,1.1,1.1,1.7c0.4,0.6,0.7,1.4,1.1,2.1     c0.7,1.6,1.6,3.4,2.3,5.4c0.3,1,0.7,2.1,1,3.1c0.3,1.1,0.5,2.2,0.8,3.4c0.6,2.4,0.9,4.8,1.2,7.4c0.2,2.5,0.5,5.2,0.5,7.8     c0.1,2.7,0.1,5.3,0.2,7.9c0,2.6,0.1,5.1,0.2,7.6c0.1,2.5,0.3,4.9,0.5,7.2c0.1,1.2,0.3,2.3,0.4,3.4c0.2,1.1,0.4,2.2,0.6,3.2     c0.3,2.2,0.9,4.1,1.3,6c0.2,1,0.5,1.8,0.8,2.7c0.3,0.9,0.5,1.7,0.8,2.4c0.4,1.6,1,2.9,1.4,4c0.8,2.2,1.3,3.6,1.3,3.6     s-1.1-0.8-3-2.4c-0.9-0.8-2.1-1.7-3.2-3.1c-1.1-1.3-2.5-2.8-3.6-4.6c-1.1-1.8-2.4-3.8-3.3-6.1c-0.5-1.1-1-2.3-1.5-3.5     c-0.4-1.2-0.8-2.5-1.1-3.8c-0.4-1.3-0.6-2.6-0.9-4c-0.3-1.4-0.5-2.7-0.6-4.1c-0.4-2.8-0.5-5.5-0.5-8.3c0-2.7,0-5.4,0.1-8     c0.1-2.6,0.2-5.1,0.4-7.6c0-2.4,0.3-4.8,0.2-7c0-1.1,0.1-2.2,0.1-3.2c0-1,0-2,0-3c0.1-2-0.1-3.7-0.1-5.3c0-0.8-0.1-1.6-0.1-2.3     c-0.1-0.7-0.1-1.4-0.2-2C740,513.6,740,512.1,740,512.1z"
   id="path1296" />
		</g>
		<path
   fill="#442416"
   d="M723.4,569.9c-8.9-26.8-1.3-56,19.4-73.7c-2,0-4.1,0.2-6.1,0.7c-22.8,4.9-35.9,34.4-29.1,65.9    c6.2,28.9,27,49.5,48.1,48.8C740.8,602,729.2,587.3,723.4,569.9z"
   id="path1300" />
	</g>
</g>
<g
   id="g1318">
	<path
   fill="#B25226"
   d="M464.1,331.4c-6.2-28.7-26.6-49.1-47.5-48.8l0,0c-0.5,0-1.1,0-1.6,0.1c-0.3,0-0.6,0-0.9,0.1   c-0.4,0-0.8,0.1-1.1,0.1c-0.2,0-0.5,0.1-0.7,0.1c-0.6,0.1-1.2,0.2-1.9,0.3c-1.4,0.3-2.8,0.7-4.2,1.2c-1.3,0.5-2.7,1.1-3.9,1.7   c-1.3,0.7-2.5,1.4-3.7,2.3c-1.2,0.8-2.3,1.7-3.4,2.7c-5.4,4.9-9.6,11.7-12.3,19.7c-0.8,2.4-1.5,4.9-2,7.4c-0.2,0.9-0.3,1.7-0.5,2.6   c-0.4,2.6-0.7,5.3-0.9,8.1c-0.3,6.5,0.2,13.3,1.7,20.2c0.2,0.9,0.4,1.9,0.7,2.8c0.1,0.3,0.2,0.6,0.2,0.9c0.2,0.6,0.3,1.2,0.5,1.8   c0.1,0.4,0.2,0.7,0.3,1.1c0.2,0.5,0.3,1.1,0.5,1.6c0.1,0.4,0.3,0.8,0.4,1.1c0.2,0.5,0.3,1,0.5,1.5c0.1,0.4,0.3,0.8,0.4,1.2   c0.2,0.5,0.4,0.9,0.6,1.4c0.2,0.4,0.3,0.8,0.5,1.2c0.2,0.4,0.4,0.9,0.6,1.3c0.2,0.4,0.4,0.8,0.5,1.2c0.2,0.4,0.4,0.8,0.6,1.3   c0.2,0.4,0.4,0.8,0.6,1.1c0.2,0.4,0.4,0.8,0.6,1.2c0.2,0.4,0.4,0.8,0.6,1.1c0.2,0.4,0.4,0.7,0.6,1.1c0.2,0.4,0.5,0.8,0.7,1.2   c0.2,0.3,0.4,0.7,0.6,1c0.3,0.4,0.5,0.8,0.8,1.2c0.2,0.2,0.3,0.5,0.5,0.7c1.2,1.7,2.4,3.3,3.6,4.8c0.1,0.1,0.2,0.2,0.3,0.4   c0.4,0.5,0.8,0.9,1.2,1.3c0.1,0.2,0.3,0.3,0.4,0.5c0.4,0.4,0.8,0.8,1.2,1.2c0.1,0.2,0.3,0.3,0.4,0.5c0.4,0.4,0.8,0.8,1.2,1.2   c0.1,0.1,0.3,0.3,0.4,0.4c0.4,0.4,0.9,0.8,1.3,1.1c0.1,0.1,0.3,0.2,0.4,0.4c0.4,0.4,0.9,0.7,1.4,1.1c0.1,0.1,0.2,0.2,0.4,0.3   c0.5,0.4,1,0.7,1.4,1.1c0.1,0.1,0.2,0.1,0.3,0.2c0.5,0.4,1,0.7,1.6,1.1c0,0,0.1,0,0.1,0.1c6,3.8,12.4,6.1,19,6.3c0,0,0,0,0,0   c2.5,0.1,5-0.1,7.5-0.7C457.8,392.4,470.9,362.9,464.1,331.4z"
   id="path1306"
   style="fill:#84be58;fill-opacity:1" />
	<g
   id="g1316">
		<g
   id="g1312">
			<path
   fill="#542E12"
   d="M403.5,272.5c22.8-4.9,46.9,16.6,53.6,48.1c6.8,31.5-6.2,61-29.1,65.9c-22.8,4.9-46.9-16.6-53.6-48.1     C367.6,306.9,380.6,277.4,403.5,272.5z"
   id="path1308" />
			<path
   fill="#341B0F"
   d="M406.8,287.8c0,0,0.9,1.1,2.2,3.1c0.3,0.5,0.7,1.1,1.1,1.7c0.4,0.6,0.7,1.4,1.1,2.1     c0.7,1.6,1.6,3.4,2.3,5.4c0.3,1,0.7,2.1,1,3.1c0.3,1.1,0.5,2.2,0.8,3.4c0.6,2.4,0.9,4.8,1.2,7.4c0.2,2.5,0.5,5.2,0.5,7.8     c0.1,2.7,0.1,5.3,0.2,7.9c0,2.6,0.1,5.1,0.2,7.6c0.1,2.5,0.3,4.9,0.5,7.2c0.1,1.2,0.3,2.3,0.4,3.4c0.2,1.1,0.4,2.2,0.6,3.2     c0.3,2.2,0.9,4.1,1.3,6c0.2,1,0.5,1.8,0.8,2.7c0.3,0.9,0.5,1.7,0.8,2.4c0.4,1.6,1,2.9,1.4,4c0.8,2.2,1.3,3.6,1.3,3.6     s-1.1-0.8-3-2.4c-0.9-0.8-2.1-1.7-3.2-3.1c-1.1-1.3-2.5-2.8-3.6-4.6c-1.1-1.8-2.4-3.8-3.3-6.1c-0.5-1.1-1-2.3-1.5-3.5     c-0.4-1.2-0.8-2.5-1.1-3.8c-0.4-1.3-0.6-2.6-0.9-4c-0.3-1.4-0.5-2.7-0.6-4.1c-0.4-2.8-0.5-5.5-0.5-8.3c0-2.7,0-5.4,0.1-8     c0.1-2.6,0.2-5.1,0.4-7.6c0-2.4,0.3-4.8,0.2-7c0-1.1,0.1-2.2,0.1-3.2c0-1,0-2,0-3c0.1-2-0.1-3.7-0.1-5.3c0-0.8-0.1-1.6-0.1-2.3     c-0.1-0.7-0.1-1.4-0.2-2C406.8,289.3,406.8,287.8,406.8,287.8z"
   id="path1310" />
		</g>
		<path
   fill="#442416"
   d="M390.2,345.6c-8.9-26.8-1.3-56,19.4-73.7c-2,0-4.1,0.2-6.1,0.7c-22.8,4.9-35.9,34.4-29.1,65.9    c6.2,28.9,27,49.5,48.1,48.8C407.6,377.8,396,363,390.2,345.6z"
   id="path1314" />
	</g>
</g>
<g
   id="g1332">
	<path
   fill="#B25226"
   d="M1901.7,1001.3c24-25.2,30.5-58.9,16.3-79.1l0,0c-0.4-0.5-0.7-1-1.1-1.5c-0.2-0.3-0.4-0.5-0.6-0.8   c-0.3-0.3-0.6-0.7-0.9-1c-0.2-0.2-0.4-0.4-0.6-0.6c-0.5-0.5-1-1.1-1.6-1.6c-1.3-1.2-2.6-2.3-4-3.3c-1.4-1-2.8-1.9-4.3-2.7   s-3.1-1.5-4.7-2.1c-1.6-0.6-3.3-1.1-4.9-1.5c-8.5-2-17.9-1.6-27.5,1c-2.9,0.8-5.8,1.8-8.7,3c-1,0.4-1.9,0.8-2.9,1.3   c-2.9,1.3-5.7,2.9-8.5,4.6c-6.6,4-12.9,9.1-18.6,15.1c-0.8,0.8-1.6,1.7-2.3,2.5c-0.3,0.3-0.5,0.6-0.7,0.9c-0.5,0.6-1,1.1-1.5,1.7   c-0.3,0.3-0.6,0.7-0.8,1c-0.4,0.5-0.8,1-1.2,1.6c-0.3,0.4-0.6,0.8-0.9,1.1c-0.4,0.5-0.8,1-1.1,1.5c-0.3,0.4-0.6,0.8-0.8,1.2   c-0.3,0.5-0.7,1-1,1.5c-0.3,0.4-0.5,0.8-0.8,1.3c-0.3,0.5-0.6,1-0.9,1.5c-0.3,0.4-0.5,0.9-0.8,1.3c-0.3,0.5-0.6,1-0.8,1.4   c-0.3,0.4-0.5,0.9-0.7,1.3c-0.3,0.5-0.5,0.9-0.7,1.4c-0.2,0.5-0.5,0.9-0.7,1.4c-0.2,0.5-0.4,0.9-0.7,1.4c-0.2,0.5-0.5,1-0.7,1.4   c-0.2,0.4-0.4,0.8-0.5,1.3c-0.2,0.5-0.4,1-0.7,1.6c-0.1,0.3-0.2,0.6-0.4,0.9c-0.9,2.2-1.6,4.5-2.3,6.7c-0.1,0.2-0.1,0.4-0.2,0.5   c-0.2,0.7-0.4,1.4-0.5,2c-0.1,0.2-0.1,0.5-0.2,0.7c-0.2,0.7-0.3,1.3-0.4,2c-0.1,0.2-0.1,0.5-0.2,0.7c-0.1,0.7-0.2,1.3-0.3,2   c0,0.2-0.1,0.5-0.1,0.7c-0.1,0.7-0.2,1.4-0.3,2c0,0.2-0.1,0.4-0.1,0.6c-0.1,0.7-0.1,1.4-0.2,2.1c0,0.2,0,0.4,0,0.6   c0,0.7-0.1,1.4-0.1,2.1c0,0.1,0,0.3,0,0.4c0,0.8,0,1.5,0,2.3c0,0.1,0,0.1,0,0.2c0.2,8.4,2.3,16.2,6.5,22.8c0,0,0,0,0,0   c1.6,2.5,3.5,4.9,5.7,7C1837.6,1035.8,1875.3,1028.9,1901.7,1001.3z"
   id="path1320"
   style="fill:#84be58;fill-opacity:1" />
	<g
   id="g1330">
		<g
   id="g1326">
			<path
   fill="#542E12"
   d="M1919,902.6c20,19.1,14.9,57.1-11.5,84.7c-26.4,27.6-64,34.5-84.1,15.4c-20-19.1-14.9-57.1,11.5-84.7     C1861.4,890.3,1899,883.4,1919,902.6z"
   id="path1322" />
			<path
   fill="#341B0F"
   d="M1906.2,916c0,0-0.5,1.6-1.6,4.3c-0.3,0.7-0.6,1.4-0.9,2.2c-0.4,0.8-0.9,1.6-1.4,2.5     c-1,1.8-2.2,3.9-3.8,5.8c-0.8,1-1.6,2-2.4,3.1c-0.9,1-1.8,2-2.8,3.1c-1.9,2.1-4.2,4.1-6.5,6.1c-2.3,1.9-4.8,3.9-7.3,5.8     c-2.5,1.9-5.1,3.7-7.6,5.5c-2.5,1.7-5,3.5-7.4,5.3c-2.4,1.8-4.6,3.5-6.7,5.3c-1,0.9-2,1.8-3.1,2.7c-1,0.9-1.8,1.8-2.8,2.7     c-1.9,1.7-3.4,3.6-5,5.3c-0.8,0.8-1.4,1.7-2.1,2.5c-0.7,0.8-1.3,1.6-1.9,2.4c-1.3,1.5-2.1,2.9-3,4c-1.6,2.3-2.7,3.6-2.7,3.6     s0-1.6,0.4-4.5c0.2-1.4,0.3-3.3,0.9-5.2c0.6-1.9,1.1-4.3,2.1-6.6c1.1-2.3,2.1-4.9,3.7-7.3c0.8-1.2,1.6-2.5,2.5-3.8     c0.9-1.2,2-2.4,3-3.7c1-1.3,2.2-2.4,3.3-3.5c1.1-1.2,2.3-2.3,3.6-3.4c2.5-2.2,5.1-4.1,7.8-6.1c2.7-1.8,5.3-3.6,8-5.2     c2.6-1.7,5.2-3.2,7.7-4.7c2.4-1.6,4.9-2.9,7-4.4c1.1-0.7,2.2-1.4,3.2-2.1c1-0.7,2-1.4,2.9-2c2-1.3,3.5-2.6,5.1-3.7     c0.8-0.6,1.5-1.1,2.2-1.6c0.7-0.6,1.3-1.1,1.8-1.5C1904.8,917,1906.2,916,1906.2,916z"
   id="path1324" />
		</g>
		<path
   fill="#442416"
   d="M1838.5,938.3c20.4-26.6,54.1-38.6,85.3-30.1c-1.4-2-3-3.9-4.8-5.6c-20-19.1-57.7-12.3-84.1,15.4    c-24.3,25.4-30.6,59.5-15.9,79.7C1818.5,976.7,1825.2,955.5,1838.5,938.3z"
   id="path1328" />
	</g>
</g>
<g
   id="g1346">
	<path
   fill="#B25226"
   d="M1874.1,292.4c12.3-26.6,8.2-55.3-8.6-67.6l0,0c-0.4-0.3-0.9-0.6-1.3-0.9c-0.2-0.2-0.5-0.3-0.7-0.5   c-0.3-0.2-0.7-0.4-1-0.6c-0.2-0.1-0.4-0.2-0.6-0.3c-0.6-0.3-1.1-0.6-1.7-0.9c-1.3-0.6-2.7-1.1-4.1-1.5c-1.4-0.4-2.8-0.7-4.2-1   c-1.4-0.2-2.8-0.4-4.3-0.4c-1.4,0-2.9,0-4.3,0.2c-7.3,0.7-14.7,3.6-21.7,8.3c-2.1,1.4-4.1,3-6.1,4.7c-0.7,0.6-1.3,1.2-1.9,1.8   c-1.9,1.8-3.8,3.8-5.6,6c-4.1,5-7.8,10.7-10.7,17.1c-0.4,0.9-0.8,1.8-1.2,2.6c-0.1,0.3-0.2,0.6-0.4,0.9c-0.2,0.6-0.5,1.2-0.7,1.8   c-0.1,0.4-0.3,0.7-0.4,1.1c-0.2,0.5-0.4,1.1-0.6,1.6c-0.1,0.4-0.2,0.8-0.4,1.1c-0.2,0.5-0.3,1-0.5,1.5c-0.1,0.4-0.2,0.8-0.3,1.2   c-0.1,0.5-0.3,1-0.4,1.5c-0.1,0.4-0.2,0.8-0.3,1.2c-0.1,0.5-0.2,0.9-0.3,1.4c-0.1,0.4-0.2,0.8-0.3,1.2c-0.1,0.5-0.2,0.9-0.3,1.4   c-0.1,0.4-0.2,0.8-0.2,1.3c-0.1,0.4-0.1,0.9-0.2,1.3c-0.1,0.4-0.1,0.9-0.2,1.3c-0.1,0.4-0.1,0.8-0.1,1.3c0,0.4-0.1,0.9-0.1,1.3   c0,0.4-0.1,0.8-0.1,1.2c0,0.5-0.1,0.9-0.1,1.4c0,0.3,0,0.6,0,0.9c-0.1,2-0.1,4,0,6c0,0.2,0,0.3,0,0.5c0,0.6,0.1,1.2,0.1,1.8   c0,0.2,0,0.4,0.1,0.6c0.1,0.6,0.1,1.1,0.2,1.7c0,0.2,0.1,0.4,0.1,0.6c0.1,0.6,0.2,1.1,0.3,1.7c0,0.2,0.1,0.4,0.1,0.6   c0.1,0.6,0.2,1.1,0.3,1.7c0,0.2,0.1,0.4,0.1,0.5c0.1,0.6,0.3,1.1,0.4,1.7c0,0.2,0.1,0.3,0.1,0.5c0.2,0.6,0.3,1.2,0.5,1.7   c0,0.1,0.1,0.2,0.1,0.3c0.2,0.6,0.4,1.2,0.6,1.8c0,0,0,0.1,0,0.1c2.5,6.7,6.3,12.3,11.4,16.4c0,0,0,0,0,0c2,1.6,4.1,2.9,6.4,4   C1832.5,337.4,1860.6,321.6,1874.1,292.4z"
   id="path1334"
   style="fill:#84be58;fill-opacity:1" />
	<g
   id="g1344">
		<g
   id="g1340">
			<path
   fill="#542E12"
   d="M1861,208.9c21.2,9.8,27.5,41.4,14,70.7c-13.5,29.3-41.6,45-62.8,35.2c-21.2-9.8-27.5-41.4-14-70.7     C1811.6,214.9,1839.8,199.1,1861,208.9z"
   id="path1336" />
			<path
   fill="#341B0F"
   d="M1854.4,223.2c0,0,0,1.4-0.1,3.8c0,0.6-0.1,1.3-0.1,2c-0.1,0.7-0.2,1.5-0.4,2.4c-0.3,1.7-0.7,3.7-1.4,5.6     c-0.3,1-0.7,2.1-1.1,3.1c-0.4,1.1-0.9,2.1-1.4,3.2c-1,2.2-2.2,4.4-3.5,6.7c-1.3,2.2-2.8,4.4-4.3,6.6c-1.5,2.2-3.1,4.3-4.6,6.4     c-1.5,2.1-3,4.2-4.4,6.2c-1.4,2-2.7,4.1-3.9,6c-0.6,1-1.1,2-1.7,3c-0.5,1-1,2-1.5,2.9c-1.1,1.9-1.7,3.8-2.5,5.6     c-0.4,0.9-0.7,1.8-1,2.6c-0.3,0.8-0.6,1.6-0.8,2.4c-0.6,1.5-0.9,2.9-1.3,4c-0.6,2.3-1.1,3.6-1.1,3.6s-0.4-1.3-0.9-3.7     c-0.2-1.2-0.7-2.7-0.7-4.4c-0.1-1.7-0.3-3.7-0.1-5.8c0.2-2.1,0.3-4.5,1-6.9c0.3-1.2,0.6-2.5,0.9-3.7c0.4-1.2,0.9-2.5,1.4-3.7     c0.4-1.3,1.1-2.5,1.7-3.7c0.6-1.2,1.2-2.5,2-3.7c1.4-2.4,3-4.7,4.5-7c1.6-2.2,3.3-4.4,4.9-6.4c1.7-2,3.2-4,4.8-5.8     c1.5-1.9,3.1-3.7,4.4-5.4c0.7-0.9,1.4-1.7,2-2.5c0.6-0.8,1.2-1.6,1.8-2.4c1.2-1.5,2.1-3,3.1-4.3c0.5-0.7,0.9-1.3,1.3-1.9     c0.4-0.6,0.7-1.2,1-1.7C1853.6,224.3,1854.4,223.2,1854.4,223.2z"
   id="path1338" />
		</g>
		<path
   fill="#442416"
   d="M1806.5,259.4c9-26.8,32.6-45.6,59.8-47.3c-1.7-1.2-3.4-2.3-5.3-3.1c-21.2-9.8-49.3,6-62.9,35.2    c-12.4,26.9-8.1,55.8,9.1,67.9C1801.1,295.5,1800.7,276.8,1806.5,259.4z"
   id="path1342" />
	</g>
</g>
<g
   id="g1360">
	<path
   fill="#B25226"
   d="M1415.2,1105.6c-4.8-29-24.2-50.4-45-51.1l0,0c-0.5,0-1.1,0-1.6,0c-0.3,0-0.6,0-0.9,0c-0.4,0-0.8,0-1.1,0.1   c-0.2,0-0.5,0-0.7,0.1c-0.6,0.1-1.3,0.1-1.9,0.2c-1.4,0.2-2.8,0.6-4.2,1c-1.4,0.4-2.7,0.9-4,1.6s-2.6,1.3-3.8,2.1   c-1.2,0.8-2.4,1.6-3.5,2.6c-5.6,4.7-10.2,11.2-13.3,19.1c-0.9,2.3-1.7,4.8-2.4,7.3c-0.2,0.8-0.4,1.7-0.6,2.6   c-0.6,2.6-1,5.3-1.2,8.1c-0.6,6.4-0.4,13.3,0.7,20.2c0.2,1,0.3,1.9,0.5,2.8c0.1,0.3,0.1,0.6,0.2,0.9c0.1,0.6,0.3,1.2,0.4,1.9   c0.1,0.4,0.2,0.7,0.3,1.1c0.1,0.5,0.3,1.1,0.4,1.6c0.1,0.4,0.2,0.8,0.3,1.1c0.1,0.5,0.3,1,0.5,1.5c0.1,0.4,0.3,0.8,0.4,1.2   c0.2,0.5,0.3,1,0.5,1.4c0.1,0.4,0.3,0.8,0.4,1.2c0.2,0.5,0.3,0.9,0.5,1.4c0.2,0.4,0.3,0.8,0.5,1.2c0.2,0.4,0.4,0.9,0.6,1.3   c0.2,0.4,0.3,0.8,0.5,1.2c0.2,0.4,0.4,0.8,0.6,1.2c0.2,0.4,0.4,0.8,0.6,1.2c0.2,0.4,0.4,0.8,0.6,1.1c0.2,0.4,0.4,0.8,0.6,1.2   c0.2,0.3,0.4,0.7,0.6,1c0.2,0.4,0.5,0.8,0.7,1.2c0.1,0.2,0.3,0.5,0.5,0.7c1.1,1.7,2.2,3.4,3.4,4.9c0.1,0.1,0.2,0.3,0.3,0.4   c0.4,0.5,0.7,0.9,1.1,1.4c0.1,0.2,0.3,0.3,0.4,0.5c0.4,0.4,0.7,0.9,1.1,1.3c0.1,0.2,0.3,0.3,0.4,0.5c0.4,0.4,0.8,0.8,1.2,1.2   c0.1,0.1,0.3,0.3,0.4,0.4c0.4,0.4,0.8,0.8,1.2,1.2c0.1,0.1,0.3,0.3,0.4,0.4c0.4,0.4,0.9,0.8,1.3,1.2c0.1,0.1,0.2,0.2,0.4,0.3   c0.5,0.4,0.9,0.8,1.4,1.2c0.1,0.1,0.2,0.1,0.3,0.2c0.5,0.4,1,0.8,1.5,1.1c0,0,0.1,0.1,0.1,0.1c5.8,4.1,12.1,6.7,18.6,7.2   c0,0,0,0,0,0c2.5,0.2,5,0.1,7.6-0.3C1406,1166.3,1420.5,1137.4,1415.2,1105.6z"
   id="path1348"
   style="fill:#84be58;fill-opacity:1" />
	<g
   id="g1358">
		<g
   id="g1354">
			<path
   fill="#542E12"
   d="M1357.6,1043.9c23.1-3.8,46,18.9,51.2,50.7c5.2,31.8-9.2,60.6-32.3,64.4c-23.1,3.8-46-18.9-51.2-50.7     C1320.1,1076.5,1334.5,1047.7,1357.6,1043.9z"
   id="path1350" />
			<path
   fill="#341B0F"
   d="M1360.1,1059.4c0,0,0.8,1.1,2.1,3.2c0.3,0.5,0.6,1.1,1,1.7c0.3,0.6,0.6,1.4,1,2.2c0.7,1.6,1.5,3.5,2,5.5     c0.3,1,0.6,2.1,0.9,3.2c0.2,1.1,0.4,2.3,0.6,3.5c0.5,2.4,0.6,4.9,0.8,7.5c0.1,2.6,0.2,5.2,0.2,7.9c0,2.7-0.1,5.3-0.2,7.9     c-0.1,2.6-0.1,5.1-0.2,7.6c0,2.5,0,4.9,0.2,7.2c0.1,1.2,0.2,2.3,0.2,3.4c0.1,1.1,0.3,2.2,0.4,3.2c0.2,2.2,0.7,4.1,1,6     c0.1,1,0.4,1.8,0.6,2.7c0.2,0.9,0.5,1.7,0.7,2.5c0.3,1.6,0.9,2.9,1.2,4c0.7,2.2,1.1,3.7,1.1,3.7s-1.1-0.8-2.9-2.5     c-0.9-0.9-2.1-1.8-3-3.2c-1-1.4-2.3-2.9-3.4-4.7c-1-1.9-2.3-3.9-3-6.2c-0.4-1.2-0.9-2.4-1.3-3.6c-0.3-1.2-0.6-2.5-1-3.9     c-0.4-1.3-0.5-2.7-0.7-4c-0.2-1.4-0.4-2.8-0.4-4.1c-0.2-2.8-0.2-5.6-0.1-8.3c0.1-2.7,0.3-5.4,0.5-8c0.2-2.6,0.4-5.1,0.7-7.6     c0.2-2.4,0.5-4.8,0.6-6.9c0.1-1.1,0.2-2.2,0.3-3.2c0-1,0.1-2,0.1-3c0.2-2,0.1-3.7,0.1-5.3c0-0.8,0-1.6,0-2.3c0-0.7-0.1-1.4-0.1-2     C1360.1,1060.8,1360.1,1059.4,1360.1,1059.4z"
   id="path1352" />
		</g>
		<path
   fill="#442416"
   d="M1340.8,1116.2c-7.5-27.2,1.4-56,23-72.7c-2-0.1-4.1,0-6.2,0.4c-23,3.8-37.5,32.6-32.3,64.4    c4.8,29.2,24.6,50.7,45.6,51.1C1356.5,1149.2,1345.7,1133.9,1340.8,1116.2z"
   id="path1356" />
	</g>
</g>
<g
   id="g1374">
	<path
   fill="#B25226"
   d="M1814.6,717.8c-20.9-20.6-49.3-26.3-66.5-14.6l0,0c-0.4,0.3-0.9,0.6-1.3,0.9c-0.2,0.2-0.5,0.4-0.7,0.5   c-0.3,0.2-0.6,0.5-0.9,0.7c-0.2,0.2-0.4,0.3-0.5,0.5c-0.5,0.4-0.9,0.9-1.4,1.3c-1,1-2,2.1-2.8,3.3c-0.9,1.2-1.6,2.4-2.3,3.6   s-1.3,2.6-1.8,3.9c-0.5,1.3-1,2.7-1.3,4.1c-1.8,7.1-1.6,15.1,0.6,23.2c0.6,2.4,1.4,4.9,2.4,7.3c0.3,0.8,0.7,1.6,1,2.4   c1.1,2.4,2.3,4.9,3.8,7.2c3.3,5.6,7.5,10.9,12.5,15.9c0.7,0.7,1.4,1.3,2.1,2c0.2,0.2,0.5,0.4,0.7,0.6c0.5,0.4,0.9,0.8,1.4,1.3   c0.3,0.2,0.6,0.5,0.9,0.7c0.4,0.4,0.9,0.7,1.3,1.1c0.3,0.2,0.6,0.5,0.9,0.7c0.4,0.3,0.8,0.6,1.3,1c0.3,0.2,0.7,0.5,1,0.7   c0.4,0.3,0.8,0.6,1.2,0.9c0.3,0.2,0.7,0.5,1,0.7c0.4,0.3,0.8,0.5,1.2,0.8c0.4,0.2,0.7,0.4,1.1,0.7c0.4,0.2,0.8,0.5,1.2,0.7   c0.4,0.2,0.7,0.4,1.1,0.6c0.4,0.2,0.8,0.4,1.2,0.6c0.4,0.2,0.8,0.4,1.2,0.6c0.4,0.2,0.8,0.4,1.1,0.6c0.4,0.2,0.8,0.4,1.2,0.6   c0.4,0.2,0.7,0.3,1.1,0.5c0.4,0.2,0.9,0.4,1.3,0.6c0.3,0.1,0.5,0.2,0.8,0.3c1.9,0.8,3.8,1.4,5.6,2c0.1,0,0.3,0.1,0.4,0.1   c0.6,0.2,1.1,0.3,1.7,0.5c0.2,0.1,0.4,0.1,0.6,0.2c0.6,0.1,1.1,0.3,1.7,0.4c0.2,0,0.4,0.1,0.6,0.1c0.6,0.1,1.1,0.2,1.7,0.3   c0.2,0,0.4,0.1,0.6,0.1c0.6,0.1,1.1,0.2,1.7,0.2c0.2,0,0.4,0,0.5,0.1c0.6,0.1,1.2,0.1,1.7,0.2c0.2,0,0.3,0,0.5,0   c0.6,0,1.2,0.1,1.8,0.1c0.1,0,0.2,0,0.3,0c0.6,0,1.3,0,1.9,0c0,0,0.1,0,0.1,0c7.1-0.1,13.7-1.8,19.3-5.2c0,0,0,0,0,0   c2.1-1.3,4.1-2.9,5.9-4.7C1843,772.2,1837.6,740.4,1814.6,717.8z"
   id="path1362"
   style="fill:#84be58;fill-opacity:1" />
	<g
   id="g1372">
		<g
   id="g1368">
			<path
   fill="#542E12"
   d="M1731.6,702.1c16.4-16.7,48.3-11.9,71.3,10.7c23,22.6,28.4,54.4,12,71c-16.4,16.7-48.3,11.9-71.3-10.7     C1720.7,750.6,1715.3,718.7,1731.6,702.1z"
   id="path1364" />
			<path
   fill="#341B0F"
   d="M1742.8,713.1c0,0,1.3,0.4,3.6,1.4c0.5,0.2,1.2,0.5,1.8,0.8c0.7,0.3,1.3,0.7,2.1,1.2     c1.5,0.9,3.2,1.9,4.8,3.2c0.8,0.7,1.7,1.3,2.6,2.1c0.9,0.7,1.7,1.6,2.6,2.4c1.8,1.7,3.4,3.6,5.1,5.5c1.6,2,3.3,4.1,4.8,6.2     c1.6,2.2,3,4.3,4.5,6.5c1.4,2.1,2.9,4.2,4.4,6.3c1.5,2,2.9,3.9,4.4,5.7c0.7,0.9,1.5,1.7,2.2,2.6c0.7,0.8,1.5,1.6,2.3,2.4     c1.4,1.6,3,2.9,4.4,4.2c0.7,0.7,1.4,1.2,2.1,1.8c0.7,0.6,1.4,1.1,2,1.6c1.2,1.1,2.4,1.8,3.4,2.5c1.9,1.4,3,2.3,3,2.3     s-1.4,0-3.8-0.4c-1.2-0.2-2.7-0.3-4.4-0.8c-1.6-0.5-3.6-0.9-5.5-1.8c-1.9-0.9-4.1-1.8-6.1-3.2c-1-0.7-2.1-1.4-3.2-2.1     c-1-0.8-2-1.7-3.1-2.6c-1.1-0.8-2-1.9-2.9-2.8c-1-1-1.9-2-2.8-3.1c-1.8-2.1-3.4-4.4-5-6.6c-1.5-2.3-3-4.5-4.3-6.8     c-1.4-2.2-2.7-4.4-3.9-6.5c-1.3-2-2.4-4.1-3.6-5.9c-0.6-1-1.1-1.9-1.7-2.8c-0.6-0.9-1.1-1.7-1.7-2.5c-1-1.7-2.1-3-3-4.3     c-0.5-0.7-0.9-1.3-1.3-1.9c-0.5-0.6-0.9-1.1-1.3-1.5C1743.6,714.2,1742.8,713.1,1742.8,713.1z"
   id="path1366" />
		</g>
		<path
   fill="#442416"
   d="M1760.8,770.3c-22.2-17.5-31.9-46-24.4-72.2c-1.7,1.2-3.3,2.5-4.7,4c-16.4,16.7-11,48.5,12,71    c21.1,20.7,49.8,26.4,67,14.3C1793,787.7,1775.2,781.7,1760.8,770.3z"
   id="path1370" />
	</g>
</g>
<g
   id="g1466">
	<g
   id="g1382">
		<path
   fill="#C6B9A5"
   d="M1140.2,1571.9c-3.6,10.1-13.3,19.7-23.5,23.3c-54.2,19.1-221.1,74.5-384.2,73.7    c-166.4,2.1-338.9-54.4-394.3-73.8c-10.2-3.5-20-13.2-23.6-23.3c-19.9-55.5-78.5-228.6-76.7-394.4    c-0.9-160.2,54.7-323.7,73.9-377.4c3.6-10.2,13.5-19.8,23.8-23.2c53.2-17.5,214.6-67.3,375.5-67.8c171.5-3.4,351,49.4,408,67.9    c10.4,3.3,20.4,13,24.1,23.3c19.2,54,74.8,217.2,73.8,377.2"
   id="path1376" />
		<path
   fill="#FFFFFF"
   d="M1189,1161.4c3.3,168.5-51.2,343.8-69.7,399.6c-3.4,10.2-12.7,19.7-22.7,23    c-53,17.6-216.4,68.8-376.6,66.9c-163.4,0.6-332.6-53.8-386.9-72.3c-10-3.4-19.5-12.9-23-23c-19.3-55.3-75.7-228.1-72.2-393.9    c0.7-160.2,57.3-323.8,76.7-377.5c3.7-10.2,13.3-19.8,23.3-23.2c51.4-17.7,206.8-67.9,361.6-69.7c165-4.7,337.6,46.2,392.5,64.2    c10,3.2,19.7,12.9,23.2,23.3C1133.9,833.3,1188.3,998.8,1189,1161.4z"
   id="path1378" />
		<path
   fill="#EFE2CA"
   d="M1202.9,1169.8c2.5,164.1-52.5,335-71.2,389.6c-3.4,10-12.8,19.3-22.8,22.7c-53,17.8-216.5,69.8-376.7,69    c-163.4,1.9-332.4-51-386.6-69.1c-10-3.3-19.4-12.7-22.8-22.7c-18.7-54.6-73.7-225.4-71.2-389.4c-0.1-158.5,53.5-319.9,71.9-372.9    c3.5-10.1,13.1-19.4,23.1-22.7c51.7-16.8,208.4-64.5,364.8-64.9c166.7-3.2,341,47.3,396.4,65c10.1,3.2,19.8,12.6,23.3,22.8    C1149.5,850.3,1203,1011.5,1202.9,1169.8z"
   id="path1380" />
	</g>
	<g
   id="g1388">
		<path
   fill="#BDA784"
   d="M602.1,668.4c-0.6-1.1-1.3-2.1-2-3.1c0.3-7,0.6-14,0.9-21c0,0,0,0,0,0c0.2-4.5,0.4-9,0.6-13.4    c0.3-6.4,0.6-12.9-0.6-19.1c-2.9-14.9-13.6-26.9-24.8-37.2c-24.4-22.5-54.3-41.4-87.4-43.7c-17.1-1.2-35,3.2-49.6,12c0,0,0,0,0,0    c-0.9,0.5-1.8,1.1-2.7,1.7c0,0,0,0-0.1,0c-0.9,0.6-1.7,1.1-2.5,1.7c0,0-0.1,0.1-0.1,0.1c-0.8,0.6-1.6,1.2-2.4,1.8    c-0.1,0.1-0.1,0.1-0.2,0.2c-0.7,0.6-1.5,1.2-2.2,1.8c-0.1,0.1-0.2,0.1-0.3,0.2c-0.7,0.6-1.4,1.2-2,1.8c-0.1,0.1-0.2,0.2-0.3,0.3    c-0.6,0.6-1.3,1.2-1.9,1.8c-0.1,0.1-0.3,0.3-0.4,0.4c-0.6,0.6-1.1,1.2-1.7,1.8c-0.1,0.2-0.3,0.3-0.4,0.5c-0.5,0.6-1,1.2-1.5,1.8    c-0.2,0.2-0.3,0.4-0.5,0.6c-0.5,0.6-0.9,1.2-1.4,1.8c-0.1,0.2-0.3,0.4-0.4,0.6c-4,1-7.9,2.3-11.7,3.9h0c0,0,0,0,0,0    c-1.8,0.8-3.6,1.6-5.3,2.5c-0.4,0.2-0.8,0.4-1.2,0.6c-0.7,0.4-1.4,0.7-2.1,1.1c-0.5,0.3-0.9,0.5-1.4,0.8c-0.7,0.4-1.3,0.8-2,1.2    c-0.5,0.3-1,0.6-1.4,0.9c-0.6,0.4-1.2,0.8-1.8,1.2c-0.6,0.4-1.2,0.8-1.7,1.2c-0.9,0.6-1.8,1.3-2.6,2c-0.6,0.4-1.1,0.9-1.7,1.4    c-0.5,0.4-1,0.8-1.4,1.2c-0.1,0.1-0.3,0.3-0.4,0.4c-0.4,0.4-0.8,0.7-1.2,1.1c-0.5,0.4-0.9,0.8-1.4,1.3c-0.5,0.5-1,1-1.5,1.5    c-0.2,0.2-0.4,0.4-0.6,0.6c-0.2,0.2-0.5,0.5-0.7,0.7c-0.3,0.3-0.6,0.7-1,1.1c-0.3,0.4-0.7,0.7-1,1.1c-0.2,0.2-0.4,0.5-0.6,0.7    c-0.2,0.2-0.4,0.5-0.6,0.7c0,0,0,0-0.1,0.1c-0.4,0.4-0.7,0.8-1.1,1.3c-0.3,0.4-0.7,0.8-1,1.3c-0.1,0.2-0.3,0.3-0.4,0.5    c-0.3,0.3-0.5,0.7-0.8,1c-0.3,0.4-0.7,0.9-1,1.4c-0.2,0.3-0.4,0.5-0.6,0.8c-0.2,0.3-0.4,0.7-0.7,1c-0.3,0.4-0.5,0.8-0.8,1.1    c-0.3,0.5-0.6,1-0.9,1.5c-0.2,0.3-0.4,0.7-0.6,1c-0.1,0.2-0.2,0.4-0.4,0.6c-0.6,1-1.2,2.1-1.8,3.2c-1,1.9-2,3.8-3,5.7    c-2.8,5.3-5.6,10.7-8.3,16.1c-3.6,7.4-7.1,14.8-10.5,22.3c-1.4,3.1-2.8,6.2-4.1,9.3c-0.4,0.8-0.7,1.7-1.1,2.5    c-2.7,6.4-5.3,12.9-7.5,19.5c-0.4,1.2-0.8,2.4-1.2,3.6c-0.8,2.4-1.5,4.8-2.2,7.2c-1.4,4.8-2.6,9.6-3.6,14.5    c-0.7,3.5-1.3,7-1.8,10.5c-0.5,3.5-0.8,7-1.1,10.6c-0.1,1.8-0.2,3.5-0.3,5.3c-0.2,3.5-0.2,7.1-0.2,10.6c0,2.9,0.2,5.8,0.3,8.8    c47-5.2,177-18.4,320.6-21.9C629.1,706.6,611.8,684.9,602.1,668.4z"
   id="path1384" />
		<path
   fill="#C7AF91"
   d="M1116.9,1578.4c0.4-0.3,3.2-2.5,2.7-2c0.5-0.4,0.9-0.8,1.4-1.2c1.6-1.6,3.2-3.2,4.6-4.9    c0.2-0.2,0.3-0.4,0.4-0.5c0.1-0.2,0.3-0.5,0.6-0.9c0.6-0.9,1.3-1.9,1.9-2.8c1.2-1.9,2.4-3.9,3.5-5.9c5-9,9.1-18.4,13.8-27.5    c3.3-6.3,10.2-9.6,17-9.6c9-80.8,21-212.1,21.7-343.5c-37.5-51.8-84.3-97-137.5-132.6c-0.3-0.2-0.6-0.4-0.9-0.6    c-1.6-1.1-3.2-2.2-4.9-3.2c-2-1.3-4-2.6-6-3.8c-0.2-0.1-0.4-0.3-0.6-0.4c-0.4-0.3-0.9-0.5-1.3-0.8c-0.2-0.1-0.5-0.3-0.7-0.4    c-0.8-0.4-1.7-0.8-2.6-1.2c-0.3-0.1-0.6-0.2-0.9-0.3c0.8-9.3,1.1-18.7,0.8-28c0,0,0,0,0,0c0,0,0,0,0,0c0-1.5-0.1-3.1-0.2-4.6    c0-0.5-0.1-1-0.1-1.5c-0.1-1-0.1-2.1-0.2-3.1c0-0.6-0.1-1.2-0.1-1.8c-0.1-0.9-0.2-1.9-0.3-2.8c-0.1-0.6-0.1-1.3-0.2-1.9    c-0.1-0.9-0.2-1.8-0.3-2.8c-0.1-0.6-0.2-1.3-0.2-1.9c-0.1-0.9-0.2-1.8-0.4-2.7c-0.1-0.6-0.2-1.3-0.3-1.9c-0.1-0.9-0.3-1.9-0.5-2.8    c-0.1-0.6-0.2-1.2-0.3-1.8c-0.2-1-0.4-2.1-0.6-3.1c-0.1-0.5-0.2-1-0.3-1.5c-0.3-1.5-0.6-3-1-4.6c-1.5-6.3-3.3-12.6-6-18.4    c-0.7-1.5-1.4-3-2.3-4.4c-0.3-0.5-0.6-1-0.9-1.4c-1.8-3-3.9-5.8-6.4-8.3c-4.1-4.1-9.4-7.3-15-8.8c-27.1-25.4-71.5-48.2-95.1-34.4    c-4.8,2.8-9.8,5.8-14.9,8.9c-0.1,0-0.2-0.1-0.3-0.1c-0.2-0.1-0.3-0.1-0.5-0.2c-0.6-0.3-1.2-0.6-1.9-0.9c0,0-0.1,0-0.1-0.1    c-0.7-0.3-1.5-0.6-2.2-0.9c0,0,0,0,0,0c-0.7-0.3-1.4-0.5-2.1-0.7c-0.1,0-0.2-0.1-0.4-0.1c-0.6-0.2-1.3-0.4-1.9-0.6    c-0.1,0-0.2-0.1-0.3-0.1c-1.5-0.4-3.1-0.7-4.6-1l0,0c0,0,0,0,0,0c-7.5-1.3-15.5-1.2-22.9,0.3c-1.1,0.2-2.3,0.5-3.4,0.8    c-2.5-1.7-5.3-2.9-8.3-3.4c-37.9-24.9-71.1-57.1-96.9-94.5c-6.4-9.2-12.7-19.1-22.3-25c-12.4-7.5-28-7-42.4-5.6    c-3,0.3-6.1,0.6-9.1,0.9c-3.5-0.6-7.1-1.2-10.6-1.7c0-0.1,0-0.2,0-0.3c0-0.1,0-0.3,0-0.4c0.1-12.7-5.5-26.8-13.2-40.9    c-143.7,3.5-273.6,16.7-320.6,21.9c0.6,9.4,1.8,18.8,3.6,28.1c1,5.2,2.2,10.5,3.6,15.6c0.9,3.5,1.9,6.9,2.9,10.3    c0.5,1.7,1.1,3.4,1.6,5.1c4.4,13.5,9.9,26.7,16,39.6c-5.6,4.3-11,8.7-16.4,13.2c-2.4,2-4.7,4.1-7,6.3c0.1,8,0.4,16,1,23.9    c0.4,5.2,0.8,10.4,1.4,15.5c0.1,0.5,0.5,3.7,0.4,3.4c0.1,0.4,0.1,0.9,0.2,1.3c0.3,2.1,0.7,4.3,1.1,6.4    c2.3,12.9,5.6,25.7,10.1,38.1c1.3,3.5,2.6,7,4,10.4c0.2,0.4,0.3,0.7,0.4,0.9c0.1,0.1,0.1,0.2,0.2,0.4c0.7,1.5,1.3,3,2,4.5    c2.9,6.2,5.9,12.4,9.1,18.4c6.5,12.2,14.3,23.8,20.5,36.1c5.6,11.2,10.3,22.7,14.9,34.3c4.6,11.6,9.1,23.3,13.8,34.9    c1.2,3,2.4,5.9,3.6,8.9c0.3,0.7,0.7,1.7,0.9,2c0.6,1.4,1.2,2.8,1.8,4.2c2.4,5.5,5,10.9,7.7,16.3c2.8,5.5,5.8,11,9.1,16.3    c1.5,2.3,2.9,4.7,4.5,6.9c0.8,1.1,1.5,2.2,2.3,3.3c0,0,0,0,0.1,0.1c0,0.1,0.1,0.1,0.1,0.1c3.4,4.2,7.1,8.2,11.3,11.8    c0.3,0.3,1,0.8,1.5,1.2c0.4,0.3,0.8,0.5,1.2,0.8c2,1.3,3.9,2.4,6,3.5c9.5,4.9,12.2,17.9,7,26.8c-5.6,9.6-17.3,11.9-26.8,7    c-3.6-1.9-7.1-4-10.4-6.4c-15.5,25-13,56-6,85.7c-1.5,1.8-2.9,3.7-4,5.7l0,0c0,0,0,0,0,0c-0.1,0.3-0.3,0.5-0.4,0.8    c0,0,0,0.1-0.1,0.1c0,0,0,0,0,0c-0.1,0.3-0.3,0.5-0.4,0.8c0,0,0,0,0,0.1c0,0.1-0.1,0.2-0.1,0.2c-0.1,0.2-0.2,0.5-0.3,0.7    c-0.1,0.3-0.2,0.6-0.3,0.9c0,0,0,0,0,0.1c-0.4,1.8-0.6,3.6-0.6,5.4c0.1,5.4,2,10.9,4.1,15.9c0.8,2,1.7,4.1,2.6,6.1    c13.7,30.2,34.6,56.8,56.9,81.4c77.6,85.7,175.8,152.5,283.9,193.4c3.7,1.4,7.5,2.8,11.2,4.1c7.5,2.7,15,5.3,22.6,7.7    c1,0.3,1.9,0.6,2.9,0.9c8.9,2.7,18.7,4.8,27.6,3.9c1-0.1,2-0.2,2.9-0.4c1-0.2,1.9-0.4,2.8-0.7c0.5-0.1,0.9-0.3,1.4-0.4    c3.2-1.1,6.2-2.7,8.9-5.1c-0.5-1.1-1-2.3-1.6-3.4c0.3,0,0.5,0,0.8,0c0.2,0,0.3,0,0.5,0c1.1,0,2.3-0.1,3.4-0.1c0.2,0,0.3,0,0.5,0    c1.3-0.1,2.6-0.1,3.8-0.2c0.1,0,0.1,0,0.2,0c1.2-0.1,2.5-0.2,3.7-0.3c0.1,0,0.3,0,0.4,0c2.6-0.3,5.3-0.6,7.9-1c0.1,0,0.2,0,0.2,0    c2.7-0.4,5.4-0.8,8.1-1.3c0,0,0,0,0,0c7.9-1.4,15.7-3.1,23.3-4.9c28.6-6.5,59.3-14.5,78-36.8c34.8,6.3,69.8,11.6,105,15.8    c4.3,0.5,8.6,1,12.9,1.5c2.9,0.3,5.8,0.6,8.7,0.9c2.9,0.3,5.8,0.5,8.7,0.7c4.1,0.3,8.1,0.6,12.2,0.8    C1116.6,1578.6,1116.7,1578.5,1116.9,1578.4z"
   id="path1386" />
	</g>
	
		<ellipse
   transform="matrix(0.9842 -0.177 0.177 0.9842 -196.5162 150.4574)"
   fill="#DDCAAB"
   cx="745.2"
   cy="1176.9"
   rx="371.2"
   ry="348.6"
   id="ellipse1390" />
	<g
   id="g1464">
		<path
   fill="#EF9B34"
   d="M1364.1,1278.1c-5.9-10-12.6-20.2-22.7-26c-8.2-4.7-17.9-5.9-27.3-6.5c-20.6-1.3-41.5,0.3-61.7,4.7    c-10.4,2.3-21.1,5.5-28.7,13c-7.8,7.7-11.3,18.6-13.9,29.3c-13.3,54.9-10.1,113.6,8.9,166.7c3.1,8.6,7.3,17.8,15.7,21.4    c6.6,2.8,14.2,1.3,21.2-0.4c33.2-8.2,65.4-20.7,95.5-37c27.4-14.9,56.2-38.6,54.6-69.8c-0.5-9.7-4-19-7.8-28    C1388.3,1322.3,1377,1299.7,1364.1,1278.1z"
   id="path1392" />
		<path
   fill="#E48A25"
   d="M1405.7,1373.5c-0.4-7.9-2.8-15.4-5.7-22.8c-1.2,0.5-2.4,1-3.5,1.6c-0.9,0.5-1.8,0.9-2.7,1.4    c-0.7,0.4-1.4,0.8-1.8,1c-5.5,3.4-10.8,7-16,10.8c-16.7,12-34.8,26.6-56.1,29c-12.6,1.4-28.9-1.2-38.3-10.5    c-10.7-10.7-16.1-23.8-16.3-39c-0.1-13.5,1.7-26.6,3.8-39.9c0.9-5.6,1.6-11.1,2.1-16.7c0.3-3.8,0.6-7.6,0.8-11.4    c0.1-1.9,0.2-3.7,0.2-5.6c0-0.2,0-3.2,0-3.7c-0.1-6.9-0.4-13.7-1-20.5c-6.4,0.8-12.7,1.9-19,3.3c-10.4,2.3-21.1,5.5-28.7,13    c-7.8,7.7-11.3,18.6-13.9,29.3c-13.3,54.9-10.1,113.6,8.9,166.7c3.1,8.6,7.3,17.8,15.7,21.4c6.6,2.8,14.2,1.3,21.2-0.4    c33.2-8.2,65.4-20.7,95.5-37C1378.6,1428.4,1407.3,1404.7,1405.7,1373.5z"
   id="path1394" />
		<path
   fill="#FAA743"
   d="M1365.8,1343.9c1.2-4.2-0.9-8.6-3-12.4c-7.7-14.4-15.4-28.7-23.1-43.1c-2.9-5.4-6.4-11.3-12.3-12.8    c-8.5-2.1-16,6-19.6,14c-11.2,25.1-3.1,57.4,18.6,74.2c9.3-3.6,18.5-7.2,27.8-10.7C1358.9,1351.2,1364.3,1348.8,1365.8,1343.9z"
   id="path1396" />
		<path
   fill="#CB7E29"
   d="M1324.8,1432.5c-10.4,4-20.8,8-31.5,11.2c-4.8,1.5-9.6,2.8-14.4,4c-3.5,0.9-7,1.8-10.5,2.7    c-0.5,0.1-0.9,0.2-1.2,0.3c-0.3,0.1-0.7,0.2-1.2,0.3c-9.9,2.6-19.8,5.3-29.1,9.5c-2,0.9-4,1.8-5.9,2.8c0.7-0.3-4.1,2.5-4.6,2.9    c-1.2,0.9-2.4,1.8-3.5,2.7c2.7,5.1,6.4,9.5,11.6,11.7c6.6,2.8,14.2,1.3,21.2-0.4c33.2-8.2,65.4-20.7,95.5-37    c22.6-12.2,46-30.5,52.7-53.9C1380.3,1408,1352.7,1421.7,1324.8,1432.5z"
   id="path1398" />
		<path
   fill="#FFD592"
   d="M404.6,559c1.7,9.8,10.4,16.5,18.4,22.3c24.6,17.7,49.4,35.5,76.9,48.5s57.9,20.9,88.1,17.7    c2-0.2,4.2-0.5,5.6-1.9c1.8-1.7,2-4.4,2.1-6.9c0.6-13.6,1.2-27.2,1.8-40.8c0.3-6.4,0.6-12.9-0.6-19.1    c-2.9-14.9-13.6-26.9-24.8-37.2c-24.4-22.5-54.3-41.4-87.4-43.7c-33.1-2.3-69.2,16.2-78.8,48C404.6,550,403.8,554.6,404.6,559z"
   id="path1400" />
		<path
   fill="#F3BE70"
   d="M557.2,562.7c-0.7-0.7-4-3.9-4.8-4.6c-2.1-2-4.2-4-6.4-5.9c-4-3.5-8-7-12.2-10.3    c-4.1-3.3-8.3-6.4-12.7-9.4c-2.3-1.6-4.7-3.2-7.1-4.7c-0.8-0.5-4.7-2.7-4.6-2.8c-8.7-4.8-17.7-9-27.2-12.1    c-1.3-0.4-2.6-0.9-3.9-1.2c-0.4-0.1-1.6-0.4-2.3-0.6c-1.6-0.4-3.1-0.8-4.7-1.1c-4.9-1-9.8-1.8-14.8-2.2c-1.4-0.1-2.7-0.2-4.1-0.3    c-0.6,0-2.5-0.1-2.9-0.1c-1.5,0-3,0.1-4.5,0.1c-2.4,0.1-4.8,0.4-7.2,0.6c-15,8.3-27,21.1-32,37.5c-1.3,4.3-2.1,8.8-1.3,13.2    c1.7,9.8,10.4,16.5,18.4,22.3c24.6,17.7,49.4,35.5,76.9,48.5c27.4,12.9,57.9,20.9,88.1,17.7c2-0.2,4.2-0.5,5.6-1.9    c1.8-1.7,2-4.4,2.1-6.9c0.4-9.1,0.8-18.2,1.2-27.4C585,594.1,571.9,577.6,557.2,562.7z"
   id="path1402" />
		<path
   fill="#EF9B34"
   d="M354.1,835.6c2.8,5.1,6.2,10.6,11.7,12.6c5.8,2.1,12.3-0.3,18-2.7c64.8-27.3,129.6-54.5,194.4-81.8    c6-2.5,12.2-5.2,16.4-10.2c4.3-5.1,53.5-3.2,54.9-9.8c7-33.3-34.1-79.1-51.3-108.4c-7.8-13.3-19.8-23.5-31.7-33.2    c-26.6-21.7-54.3-42.2-82.7-61.4c-41.8-28.2-98.8-14.4-122.7,30c-7.8,14.5-15.1,29.2-21.8,44.1c-8.2,18.2-15.7,36.9-19.7,56.5    C308,727.4,326.6,785.5,354.1,835.6z"
   id="path1404" />
		<path
   fill="#E48A25"
   d="M624.5,705.4c-1.9-0.6-3.8-1.1-5.8-1.7c-0.7-0.2-3.1-0.8-3.3-0.9c-4.1-1-8.2-2-12.3-2.8    c-8.3-1.7-16.6-3.1-25-3.9c-4.2-0.4-8.4-0.8-12.6-0.9c-1.2-0.1-2.4-0.1-3.6-0.1c2.1,0,1.9,0-0.4,0c-1.8,0-3.6,0-5.5,0.1    c-29.8,1.1-51,11-81.2,11.9c-25.1,0.7-48.7-5.6-65.2-25.6c-19.2-23.3-26.8-57.4-26-87c0.5-17,4.8-32.7,11.6-48.2    c2.1-4.7,4.4-9.3,7.3-13.4c-17.2,7.2-32.1,20.1-41.8,37.9c-7.8,14.5-15.1,29.2-21.8,44.1c-8.2,18.2-15.7,36.9-19.7,56.5    c-11.3,56,7.3,114.1,34.8,164.1c2.8,5.1,6.2,10.6,11.7,12.6c5.8,2.1,12.3-0.3,18-2.7c64.8-27.3,129.6-54.5,194.4-81.8    c6-2.5,12.2-5.2,16.4-10.2c4.3-5.1,53.5-3.2,54.9-9.8c2.1-9.8,0-20.6-4.4-31.7C638.1,709.7,631.4,707.4,624.5,705.4z"
   id="path1406" />
		<path
   fill="#CB7E29"
   d="M379.1,839.8c-14.5-30.9-21.6-65.2-27.9-98.5c-5.5-29-10.3-57.3-6-86.9c6.5-44.3,28.5-82.9,53.1-119.6    c-15.4,7.5-28.7,19.6-37.5,36c-7.8,14.5-15.1,29.2-21.8,44.1c-8.2,18.2-15.7,36.9-19.7,56.5c-11.3,56,7.3,114.1,34.8,164.1    c2.8,5.1,6.2,10.6,11.7,12.6c5.3,1.9,11.1,0.1,16.5-2.1C381.1,844,380.1,841.9,379.1,839.8z"
   id="path1408" />
		<path
   fill="#FFD592"
   d="M674.7,741.3c-29.9,13.3-59.8,26.7-89.7,40c-63.2,28.2-126.3,56.3-189.5,84.5    c-28.6,12.8-58.1,26.1-79.4,49.1c-9.3-18.8-17.7-40.8-9.6-60.1c4.3-10.3,12.7-18.3,21.2-25.6C421.6,748.8,553.8,715.3,674.7,741.3    z"
   id="path1410" />
		<path
   fill="#EAB063"
   d="M552.1,742.5c-14.2,4.3-28.3,9.1-42.2,14.1c-28.9,10.4-57.5,21.9-84.7,36.2c-12.8,6.7-24,13.3-37.3,22.1    c-10.5,6.9-21.1,13.7-31.3,21c-11.2,7.9-22.1,16.2-32,25.7c-0.4,0.4-0.7,0.6-0.9,0.8c-0.2,0.2-0.5,0.5-0.8,0.8    c-0.9,0.9-1.8,1.8-2.6,2.8c-2.1,2.3-4.2,4.7-6.1,7.2c-1.9,2.4-3.8,4.9-5.5,7.5c-0.9,1.3-1.8,2.7-2.6,4c-0.1,0.3-0.3,0.6-0.5,1    c-0.1,0.2-0.3,0.5-0.4,0.7c2.3,9.8,6.5,19.5,11,28.5c21.3-23,50.8-36.3,79.4-49.1c63.2-28.2,126.3-56.3,189.5-84.5    c29.9-13.3,59.8-26.7,89.7-40c-22.7-4.9-45.7-7.6-68.9-8.4c-13.3,1.8-26.7,3.6-39.9,5.8C561.3,739.9,556.7,741.2,552.1,742.5z"
   id="path1412" />
		<path
   fill="#E6982D"
   d="M320.5,953.8c-6-15.5-11.6-32.3-8.1-48.6c4.3-19.9,21.2-34.4,37.6-46.5c93-68.3,204.9-110.6,319.8-121.1    c14.5-1.3,30-1.9,42.4,5.6c9.6,5.8,15.9,15.7,22.3,25c29.7,42.9,69,79.1,114.3,105.1c-123.2,95.6-246.4,191.1-369.6,286.7    c-10.6,8.2-23,16.9-36.2,14.5C392.2,1107.2,350.9,1032.6,320.5,953.8z"
   id="path1414" />
		<path
   fill="#D28028"
   d="M312.4,905.3c-3.5,16.3,2.1,33,8.1,48.6c29.2,75.6,68.4,147.3,116.4,212.6c0,0.9,0,1.8,0.1,2.8    c1.1,9.4,10.6,18,20.4,16.1c37-7.3,65.6-31.3,94.2-54.3c30.5-24.6,61.1-49.2,91.6-73.9c61-49.3,122-98.6,183-147.9    c4.9-3.9,9.7-8,14.5-12c6.6-5.5,9.5-14.1,6.2-22.3c-3.6-8.9-15.6-15.5-24.8-10.7c-26.4,13.7-52.9,27.3-79.2,41.3    c-68,36.3-169.1,82-246,51c-29.3-11.8-53.6-32.2-74.7-55.3c-8.7-9.5-16.7-19.5-24.7-29.5c-4.2-5.3-8.4-10.6-12.9-15.7    c-2.1-2.4-4.1-4.7-6.3-6.9c-0.4-0.4-2.1-2.1-2.3-2.3c-0.5-0.5-1.1-1-1.6-1.5c-0.7-0.7-1.4-1.3-2.2-1.9c-7.5,5-15,10.2-22.3,15.6    C333.6,870.9,316.7,885.3,312.4,905.3z"
   id="path1416" />
		<path
   fill="#FEC572"
   d="M1262,1494.7c0.3-2.3-1-4.6-2.2-6.6c-29.2-50.6-38.8-112.2-26.5-169.3c3.6-16.9,9.1-33.6,9.7-50.9    c1.1-33-17.5-66-46.3-82.1c-9.4,8.6-12.7,21.8-15.5,34.3c-7.9,35.1-15.7,70.2-23.6,105.4c-9.4,42.1-18.9,85-15.5,128    c1.4,17.1,4.9,34.5,14,49.2s24.3,26.2,41.4,27.4c22.7,1.7,42.6-14.1,59.9-28.9C1259.5,1499.4,1261.7,1497.4,1262,1494.7z"
   id="path1418" />
		<path
   fill="#E8A44A"
   d="M1181.3,1220c-7.9,35.1-15.7,70.2-23.6,105.4c-9.4,42.1-18.9,85-15.5,128c1.4,17.1,4.9,34.5,14,49.2    c9,14.6,24.3,26.2,41.4,27.4c11.1,0.8,21.5-2.5,31.3-7.9c0,0,0,0,0,0c-20.6-92.6-50.4-206.7,7.2-291.6    c-7.8-18.7-21.6-34.9-39.3-44.9C1187.4,1194.3,1184.1,1207.6,1181.3,1220z"
   id="path1420" />
		<path
   fill="#E6982D"
   d="M1069.8,1541.9c45.7,5.5,93.9,8.8,136.1-9.7c-24-22.8-27.4-59.4-27.3-92.6c0.2-70.3,9.4-140.6,27.5-208.6    c2.9-11,6.1-22.5,3.9-33.7c-1.6-8-5.9-15.2-10.2-22.2c-42.7-67.9-100.8-126-168.6-168.8c-3.4-2.2-7.5-4.4-11.3-3.1    c-3.4,1.1-5.4,4.4-7.1,7.5c-64,117.2-111.2,243.6-139.6,374.1c-8,36.8-13.1,79.8,11.8,108.1c17.9,20.4,46.4,27,73.1,31.9    C995,1531.7,1032.3,1537.4,1069.8,1541.9z"
   id="path1422" />
		<path
   fill="#D28028"
   d="M1175.1,1443.8c-2.5-1-5.1-1.9-7.7-2.6c-0.1,0-0.1,0-0.2,0c-1-0.2-2-0.5-3.1-0.7c-5.3-1.1-10.6-2-15.9-2.6    c-22.1-2.6-44.4-2.1-66.6-4.3c-18.9-1.9-38.5-5.6-55.2-15c-20.5-11.6-35.8-29.3-44.1-51.5c-17.9-47.8-11.9-100.3,2.4-148.1    c13.7-45.7,35.2-88.5,51.7-133.1c4.1-11,7.9-22.1,11.1-33.4c0.2-0.7,0.9-3.4,1.1-3.9c0.2-0.6,0.3-1.3,0.5-1.9    c0.7-2.7,1.3-5.4,1.9-8.1c1.2-5.4,2.3-10.8,3.2-16.2c0-0.1,0-0.1,0-0.2c-7.6-5.4-15.4-10.6-23.3-15.6c-3.4-2.2-7.5-4.4-11.3-3.1    c-3.4,1.1-5.4,4.4-7.1,7.5c-64,117.2-111.2,243.6-139.6,374.1c-8,36.8-13.1,79.8,11.8,108.1c17.9,20.4,46.4,27,73.1,31.9    c37.1,6.9,74.4,12.5,111.8,17c45.7,5.5,93.9,8.8,136.1-9.7c-22.6-21.5-26.9-55.3-27.3-86.9    C1177.4,1444.8,1176.2,1444.3,1175.1,1443.8z"
   id="path1424" />
		<path
   fill="#BF6A28"
   d="M1171.6,1515.2c-58.5-1.2-117.1-7-173.8-22.2c-46.1-12.4-89.7-30.2-131.2-52.8    c0.6,19.6,5.4,38.2,18.3,52.9c17.9,20.4,46.4,27,73.1,31.9c37.1,6.9,74.4,12.5,111.8,17c45.7,5.5,93.9,8.8,136.1-9.7    c-5.2-5-9.5-10.6-12.9-16.7C1185.8,1515.4,1178.7,1515.3,1171.6,1515.2z"
   id="path1426" />
		<path
   fill="#FEC572"
   d="M799.2,1565.2c27.7,10.7,58.7,4.3,87.6-2.2c29-6.6,60.3-14.7,78.9-38c-25.2-15-52.2-31.8-63-59.1    c-8.5-21.4-5.5-45.4-1.5-68.1c11.6-66.3,30.4-131.4,55.9-193.7c17.7-43.2,38.6-85.2,52.8-129.6c14.2-44.5,21.4-92.4,10.8-137.9    c-2.8-11.8-7-23.9-15.5-32.5s-22.4-13-33.3-7.6c-7,3.5-11.7,10.4-16,16.9c-68.1,103.3-129.3,211.1-183.3,322.4    c-15.8,32.6-31.1,65.9-37.6,101.4c-5,27.4-4.6,55.5-3.5,83.4c1.1,28.2,2.9,57,12.7,83.5C754,1530.6,772.8,1555.1,799.2,1565.2z"
   id="path1428" />
		<path
   fill="#BF6A28"
   d="M427.1,1107.9c-15.6-25.9-28.8-53.6-41.1-81.2c-21.7-48.8-40-99.1-57.8-149.4c-7.6,8-13.5,17.2-15.9,27.9    c-3.5,16.3,2.1,33,8.1,48.6c30.4,78.8,71.7,153.3,122.5,220.8c9.5,1.7,18.5-2.3,26.8-7.8C455.6,1147.2,439.7,1128.8,427.1,1107.9z    "
   id="path1430" />
		<path
   fill="#FFD592"
   d="M789.2,893.6c16.6-11.9,33.9-24.1,54-28.3c20-4.2,43.7,2,54,19.7c-12.5,28.1-35.2,50.2-57.6,71.2    c-128.9,120.6-269.2,229.1-418.4,323.5c-11.4-37.9-22.1-81.8-0.2-114.8c9.1-13.8,22.8-23.7,36.2-33.3    C567.8,1052.3,678.5,973,789.2,893.6z"
   id="path1432" />
		<path
   fill="#EAB063"
   d="M529.8,1111c-19.9,21.7-42.8,40.3-64.9,59.6c-14.1,12.3-27.9,25.3-39.6,39.8c-1.8,2.4-3.6,4.8-5.5,7.1    c-3.6,4.9-6.9,9.9-9.9,15.1c2.3,16,6.7,32,11.2,47.2c149.2-94.5,289.4-202.9,418.4-323.5c22.5-21,45.1-43.1,57.6-71.2    c-6.5-11.2-18.2-17.7-31.1-20c-44.6,26.9-89.5,56.6-131.8,86.8c-62.3,44.4-120.4,94.2-181.1,140.8    C545.3,1098.7,537.5,1104.8,529.8,1111z"
   id="path1434" />
		<path
   fill="#E8A44A"
   d="M955.9,913.4c-68.1,103.3-129.3,211.1-183.3,322.4c-15.8,32.6-31.1,65.9-37.6,101.4    c-5,27.4-4.6,55.5-3.5,83.4c1.1,28.2,2.9,57,12.7,83.5c9.8,26.5,28.6,51,55,61.1c20.3,7.8,42.5,6.5,64.3,2.6c-3-3-5-7-5.5-11.4    c-1.4-11.5-2.2-23-2.5-34.4c-0.6-22.2-5.6-37.1-0.4-59.6c29.9-130.3,61.6-267.4,125.1-385.5c16.2-30.1,30.6-61.2,42.5-93.3    c1-2.8,2-5.6,3-8.3c-0.4-13-2-26-4.9-38.8c-2.8-11.8-7-23.9-15.5-32.5c-8.6-8.6-22.4-13-33.3-7.6    C964.9,900,960.3,906.8,955.9,913.4z"
   id="path1436" />
		<path
   fill="#CB7E29"
   d="M411.7,1283.3c13.6,32.7,35.7,61.2,59.5,87.5c85.6,94.6,196.4,166.1,317.7,205.3c15.5,5,34.3,8.9,46.6-1.8    c-23.7-49.8-25-107.9-14.1-162c10.8-54.1,33.1-105.1,55.2-155.6c42-96.2,84.1-192.4,126.1-288.6c5.1-11.7,10.4-23.9,10.5-36.7    c0.4-29.3-82.4-91.5-118-70.8c-157.1,91.6-449.8,346.1-477.6,386.7c-3.3,4.8-8,8.9-9.4,14.5    C406.4,1269.1,408.9,1276.6,411.7,1283.3z"
   id="path1438" />
		<path
   fill="#C37229"
   d="M930,1127.5c-24.5,20.2-46.4,43.3-71,63.3c-29.5,24-61.3,42.9-95.6,59.2c-23.7,11.3-48.5,20.5-74.4,25.3    c-33.4,6.1-65.8,2.1-96-10.7c-22.2-3.1-43.5-10-63.4-21.7c-22.5-13.2-40.4-32.2-54.6-53.7c-30.1,27.9-50.9,48.9-57.4,58.4    c-3.3,4.8-8,8.9-9.4,14.5c-1.8,7.1,0.7,14.5,3.5,21.3c13.6,32.7,35.7,61.2,59.5,87.5c85.6,94.6,196.4,166.1,317.7,205.3    c15.5,5,34.3,8.9,46.6-1.8c-23.7-49.8-25-107.9-14.1-162c10.8-54.1,33.1-105.1,55.2-155.6c19.4-44.4,38.8-88.8,58.2-133.1    C933.2,1124.9,931.6,1126.2,930,1127.5z"
   id="path1440" />
		<path
   fill="#DC8927"
   d="M582.8,1128.6c-0.9,4.7,0.1,9.6,1.7,14.2c8.1,24,29.7,41.9,53.9,49.3c24.2,7.4,50.5,5.3,74.8-1.7    c87.6-25.2,144.4-106.5,203.8-175.6c18.5-21.6,38.7-43.9,44.1-71.8c5.4-27.9-11.8-62.3-40.2-63.4c-16.7-0.6-31.6,9.9-45,20    c-92.4,69.7-184.7,139.5-277.1,209.2C591.9,1114.2,584.5,1120.1,582.8,1128.6z"
   id="path1442" />
		<path
   fill="#A85926"
   d="M714.8,1508.6c-25.2-14-49.5-29.7-73.5-45.6c-28.2-18.7-56.6-36.9-83.7-57.3c-15-11.3-29.8-22.9-44.3-34.9    c-15.3-12.5-29.2-25.8-42.2-40.8c-12.1-14.1-23.6-28.7-35.5-43c-8.9-10.7-17.1-20.1-25.9-28.9c-0.7,1.2-1.2,2.5-1.5,3.8    c-1.8,7.1,0.7,14.5,3.5,21.3c13.6,32.7,35.7,61.2,59.5,87.5c85.6,94.6,196.4,166.1,317.7,205.3c15.5,5,34.3,8.9,46.6-1.8    c-4.5-9.5-8.2-19.3-11.2-29.4C785.4,1543.2,748.5,1527.4,714.8,1508.6z"
   id="path1444" />
		<path
   fill="#FAA743"
   d="M666.1,863.4c18.6-5.7,38.2-8,57.6-6.7c16.1,1.1,33.5,4.4,47.6-3.6c1.6-0.9,3.3-2.1,3.9-3.9    c1-2.8-0.9-5.7-2.7-8c-9.1-11.8-18.1-23.5-27.2-35.3c-16.9-22-36.6-45.6-64.1-49.6c-14.2-2-28.5,1.6-42.4,5.2    c-19.9,5.2-39.8,10.4-59.7,15.6c-31.6,8.3-63.9,16.8-91.1,35c-6.6,4.4-13.2,9.9-15.1,17.6c-3.7,14.5,10.5,26.9,23.4,34.4    c28.3,16.5,60.6,29.2,93.1,25C616.2,885.8,640.2,871.3,666.1,863.4z"
   id="path1446" />
		<path
   fill="#FAA743"
   d="M438.1,552.6c32.7,8.9,66.4,18.4,92.5,40.1c14,11.7,25.2,26.3,36.2,40.9c2.1,2.8,4.4,6,4.2,9.5    c-0.1,2.3-1.3,4.4-2.7,6.1c-6.6,7.9-18.7,9-28.6,6s-18.3-9.4-27.4-14.4c-17.4-9.7-37-14.6-55-23c-18-8.4-35.4-21.7-41-40.8    c-2.8-9.7-0.5-22.8,9.3-25.5C429.6,550.4,433.9,551.5,438.1,552.6z"
   id="path1448" />
		<path
   fill="#FAA743"
   d="M1165.7,1174.3c-4.6-10-9.3-20-13.9-29.9c-4.8-10.3-9.8-21-18.3-28.6c-8.5-7.6-21.4-11.6-31.5-6.4    c-11.1,5.7-15,19.4-17.7,31.6c-10.3,45.9-20.6,91.8-30.9,137.7c-3.1,14-6.3,28.3-5.1,42.6c3,34,34,63.2,68.1,64    c6.3,0.2,12.9-0.7,17.9-4.5c6.1-4.7,8.3-12.9,10.1-20.4c9.1-38.1,18.2-76.2,27.2-114.4c3.3-13.9,6.6-28.3,4.4-42.4    C1174.5,1193.2,1170.1,1183.7,1165.7,1174.3z"
   id="path1450" />
		<path
   fill="#FDC07C"
   d="M1155.4,1178.4c-5.9-10.8-25.7-6.6-24.3,6.6c0.8,7.5,4.1,14.5,5.7,21.8c1.4,6.4,2.6,12.9,3,19.5    c0.9,13.4-5.9,26.4-4,39.9c0.1,0.5,0.7,0.6,1,0.4c14-6.6,17.3-24.5,20.1-38c1.6-7.8,3-15.2,3.2-23.2    C1160.3,1196.7,1159.5,1186,1155.4,1178.4z"
   id="path1452" />
		<path
   fill="#FDC07C"
   d="M713.6,798.6c-2.4-4.9-5.6-9.2-9.4-13.2c-8-8.4-18.7-13.7-30.3-14.3c-11.9-0.6-22.3,5.2-32.8,9.8    c-5.1,2.2-10.2,5.1-14.6,8.4c-1.9,1.4-3.6,3-5.4,4.6c-3.3,2.9-6.7,4-10.8,5.4c-3.9,1.2-1.6,6.9,2.2,5.1c2.2-1,4.4-2.1,6.7-2.9    c2.4-0.9,6.1-0.4,8.7-0.4c5.1-0.1,9.9-1.2,14.9-2.5c3.8-0.9,7.9-2.5,11.8-2.9c4.7-0.5,9.6-0.3,14.3-0.4c7.9-0.2,13,4.4,19.1,8.7    c3.6,2.5,7.1,5.1,10.7,7.6c3.5,2.4,6.2,6,10.6,6.8c3.5,0.6,7.5-0.9,8.3-4.7C718.6,808,716,803.5,713.6,798.6z"
   id="path1454" />
		<path
   fill="#FAA743"
   d="M937.2,912c-0.5-0.8-0.9-1.7-1.5-2.6c-5.1-7.8-19.1-2.9-15.7,6.6c0.2,0.4,0.3,1.4,0.4,2    c-2.7,5.4-2.4,12.4-3.5,17.4c-1.9,8.1-5.1,14.2-10,21.5c-4.5,6.8-8.8,14.8-14.5,20.7c-6.1,6.2-15.2,10.8-19.6,18.3    c-2.9,4.9,0.7,12.5,6.9,12c10.4-0.8,19.7-9.3,27.5-15.5c3.8-3,8-5.4,11.8-8.5c4.1-3.4,7.8-7,11.2-11.2c7-8.8,12.6-18.3,15.3-29.4    C947.8,934.2,947.4,916.4,937.2,912z"
   id="path1456" />
		<path
   fill="#FDC07C"
   d="M1348.6,1315.3c-4-9.3-12.9-26.8-25.7-22.9c-3.6,1.1-5.9,4.8-4.8,8.5c1.4,4.8,5.6,8.1,8.8,11.8    c2.8,3.3,4.5,7.7,6.4,11.5c2.1,4.3,8.1,5.5,12.1,3.2C1350,1324.7,1350.5,1319.7,1348.6,1315.3z"
   id="path1458" />
		<path
   fill="#FDC07C"
   d="M530.2,603.2c-6-5-12.5-8.9-19.5-12.2c-6.8-3.2-13.9-6-21.2-8.1c-3.8-1.1-7.5-1.1-11.3-1.7    c-4.1-0.6-8.2-1-12.3-1.2c-3.6-0.2-4.5,5.7-0.9,6.4c13.2,2.4,26.4,7.8,37.7,15c5.9,3.7,11.2,8.3,16.5,12.8    c2.5,2.1,4.8,4.4,7.1,6.7c2.9,3,4.9,6.3,9.2,7.1c4.3,0.8,8.9-1.9,8.8-6.7C544,613.7,535.7,607.8,530.2,603.2z"
   id="path1460" />
		<path
   fill="#E69B50"
   d="M946.8,921.7c-5-15.1-17.4-23.1-33-23.4c-10.8-0.2-16.9,6-18.1,16.3c-0.8,6.6-2.6,13.2-5,19.6    c-4.7,12.7-12.5,24.8-19.9,36.2c-8,12.3-20.4,25.9-20.2,41.4c0.1,11.6,8.7,17.1,19.2,18.4c8.7,1.1,17-5.2,22.7-10.8    c6.2-6.1,12.9-12.4,18.9-19.1c1.9-1.4,3.8-2.9,5.7-4.5c11-9.2,20.4-20.9,26.1-34C948.6,949.3,951.2,935.1,946.8,921.7z"
   id="path1462" />
	</g>
</g>
<g
   id="g1612">
	<path
   fill="#EFE2CA"
   d="M1935.3,576.4c0,28.4-16.5,51.7-36.6,51.7h-335.6c-20.1,0-36.6-23.2-36.6-51.7V542   c0-28.4,16.5-51.7,36.6-51.7h335.6c20.1,0,36.6,23.2,36.6,51.7V576.4z"
   id="path1468" />
	<path
   fill="#BCBCBC"
   d="M1625.1,542v34.4c0,28.4,16.5,51.7,36.6,51.7h174.3c0.4-10.5,0.6-21,0.6-31.6c0-36.3-2.4-71.8-7-106.2h-168   C1641.6,490.3,1625.1,513.6,1625.1,542z"
   id="path1470" />
	<circle
   fill="#FFFFFF"
   cx="1403.4"
   cy="579.3"
   r="394.2"
   id="circle1472" />
	<path
   fill="#C6B9A5"
   d="M1404.2,185.1l-359.6,430l359.6,358.3c217.3-0.4,393.4-176.7,393.4-394.2   C1797.6,361.8,1621.5,185.5,1404.2,185.1z"
   id="path1474" />
	<circle
   fill="#EFE2CA"
   cx="1403.4"
   cy="579.3"
   r="381.4"
   id="circle1476" />
	<circle
   fill="#30261F"
   cx="1403.4"
   cy="579.3"
   r="311"
   id="circle1478" />
	<circle
   fill="#382D25"
   cx="1403.4"
   cy="579.3"
   r="281.5"
   id="circle1480" />
	<path
   fill="#8C6149"
   d="M1128.2,717.1c0.9-19.9,4.1-39.6,12.2-58c7.8-17.7,22.7-31.2,40.4-38.8c9.9-4.3,19.9-7.5,30.2-10.7   c4.7-1.5,9.3-2.9,13.8-4.8c0,0,0.1,0,0.1,0c1-0.4,1.9-0.9,2.9-1.4c2-1,4-2,5.9-3.2c1.3-0.8,2.5-1.6,3.8-2.5c0,0,0.1-0.1,0.1-0.1   c1.8-1.5,3.5-3.1,5.1-4.9c0.5-0.6,1.1-1.2,1.6-1.8c0.4-0.5,1-1.3,1.1-1.5c1.5-2.3,3-4.6,4.2-7c0.3-0.5,2.1-4.8,1.7-3.6   c0.5-1.2,0.9-2.5,1.3-3.8c1-3.2,1.9-6.5,2.5-9.9c0.1-0.3,0.7-4.9,0.5-2.7c0.2-1.4,0.3-2.8,0.4-4.3c0.2-3.3,0.3-6.7,0.3-10   c-0.4-29.8-7.9-58.8-3.2-88.6c4.1-26,18.4-52.9,37.4-71.2c31.7-30.6,75.5-35.5,117.5-30.5c21.9,2.6,43.5,6.8,65.2,10.8   c5.3,1,10.6,1.9,15.9,2.8c2.4,0.4,4.8,0.8,7.2,1.2c1,0.1,5.4,0.8,5.6,0.8c8.7,1.1,17.4,1.8,26.2,1.3c2.7-0.1,5.3-0.3,8-0.7   c0.1,0,0.2,0,0.3,0c1.1-0.2,2.1-0.3,3.2-0.5c4.6-0.8,9.1-1.9,13.6-3.3c2-0.6,4.1-1.3,6.1-2.1c0.8-0.4,3.9-1.7,4.6-2.1   c2-1,3.9-2.1,5.8-3.3c1-0.6,5.1-3.8,4-2.8c1.5-1.3,2.9-2.6,4.2-4.1c0.6-0.6,1.1-1.2,1.6-1.8c0.1-0.2,0.3-0.4,0.4-0.5   c1.2-1.8,2.3-3.6,3.3-5.6c0.1-0.2,0.3-0.6,0.4-1c0.3-0.7,0.5-1.4,0.7-2.1c0.4-1.5,0.8-3,1.1-4.5c0.1-0.4,0.2-1.2,0.2-1.7   c0.1-2,0.2-4,0.1-5.9c0-1-0.1-1.9-0.1-2.9c-0.1-0.4-0.1-0.7-0.2-1c-0.1-0.7-0.3-1.4-0.5-2.1c-51-36.7-113.6-58.3-181.3-58.3   c-171.7,0-311,139.2-311,311c0,52.1,12.8,101.3,35.5,144.4C1128,721.5,1128.1,719.3,1128.2,717.1z"
   id="path1482" />
	<g
   id="g1486">
		<path
   fill="#FFFFFF"
   d="M1711,407.9c-3.5,0-6.9-1.8-8.9-5c-42.1-71.1-108.1-125-185.9-151.7c-5.4-1.8-8.2-7.7-6.4-13.1    c1.8-5.4,7.7-8.2,13.1-6.4c82.4,28.3,152.4,85.4,196.9,160.7c2.9,4.9,1.3,11.2-3.6,14.1C1714.6,407.5,1712.8,407.9,1711,407.9z"
   id="path1484" />
	</g>
	<g
   id="g1490">
		<path
   fill="#683B25"
   d="M1403.4,297.8c65.1,0,125.1,22.1,172.8,59.3c0.5-0.5,0.9-0.9,1.4-1.4c0.6-0.6,1.1-1.2,1.6-1.8    c0.1-0.2,0.3-0.4,0.4-0.5c1.2-1.8,2.3-3.6,3.3-5.6c0.1-0.2,0.3-0.6,0.4-1c0.3-0.7,0.5-1.4,0.7-2.1c0.4-1.5,0.8-3,1.1-4.5    c0.1-0.4,0.2-1.2,0.2-1.7c0.1-2,0.2-4,0.1-5.9c0-1-0.1-1.9-0.1-2.9c-0.1-0.4-0.1-0.7-0.2-1c-0.1-0.7-0.3-1.4-0.5-2.1    c-51-36.7-113.6-58.3-181.3-58.3c-171.7,0-311,139.2-311,311c0,52.1,12.8,101.3,35.5,144.4c0-2.2,0.1-4.4,0.2-6.6    c0.8-16.4,3.1-32.7,8.4-48.1c-9.5-28.2-14.6-58.3-14.6-89.7C1121.9,423.8,1247.9,297.8,1403.4,297.8z"
   id="path1488" />
	</g>
	<path
   fill="#FFFFFF"
   d="M1917,535.2c-1.4-7.9-3.6-17.6-9.2-23.7c-5.2-5.6-12.1-7.7-19.6-8.1c-7.6-0.4-17.1,0.8-21.7,7.4   c-2.9,4.2-1.2,9.5,1.7,13.1c1.9,2.3,5.3,3.7,8.2,3.4c2-0.2,4.3-0.8,6.2-2c2.3-0.3,4.7-0.3,7-0.2c1.7,0.1,2.5,1,3.4,3.4   c3.6,10.2,4.8,20.9,4.2,31.6c-0.7,13.9,20.9,13.8,21.6,0C1919.2,551.8,1918.4,543.5,1917,535.2z"
   id="path1492" />
	<g
   id="g1610">
		<path
   fill="#382D25"
   d="M1222.6,567.3c0,7.7-7.3,14-15,14c-7.7,0-14-6.3-14-14c0-7.7,6.3-13,14-13    C1215.3,554.3,1222.6,559.6,1222.6,567.3z"
   id="path1494" />
		<path
   fill="#382D25"
   d="M1208.1,464.6c0,7.7-7.3,14-15,14s-14-6.3-14-14c0-7.7,6.3-13,14-13S1208.1,456.9,1208.1,464.6z"
   id="path1496" />
		<path
   fill="#382D25"
   d="M1437.9,333c0,6.5-6.2,11.8-12.7,11.8c-6.5,0-11.8-5.3-11.8-11.8c0-6.5,5.3-10.9,11.8-10.9    C1431.8,322.1,1437.9,326.5,1437.9,333z"
   id="path1498" />
		<path
   fill="#382D25"
   d="M1457.3,335.4c0,3.3-3.1,5.9-6.4,5.9s-5.9-2.7-5.9-5.9c0-3.3,2.7-5.5,5.9-5.5S1457.3,332.1,1457.3,335.4z"
   id="path1500" />
		<path
   fill="#382D25"
   d="M1515.5,354.1c0,3.3-3.1,5.9-6.4,5.9s-5.9-2.7-5.9-5.9s2.7-5.5,5.9-5.5S1515.5,350.8,1515.5,354.1z"
   id="path1502" />
		<path
   fill="#382D25"
   d="M1366.7,330.3c0,3.3-3.1,5.9-6.4,5.9s-5.9-2.7-5.9-5.9c0-3.3,2.7-5.5,5.9-5.5S1366.7,327,1366.7,330.3z"
   id="path1504" />
		<path
   fill="#382D25"
   d="M1345.1,321.8c0,3.3-3.1,5.9-6.4,5.9s-5.9-2.7-5.9-5.9s2.7-5.5,5.9-5.5S1345.1,318.5,1345.1,321.8z"
   id="path1506" />
		<path
   fill="#382D25"
   d="M1287.8,359.8c0,3.3-3.1,5.9-6.4,5.9s-5.9-2.7-5.9-5.9c0-3.3,2.7-5.5,5.9-5.5S1287.8,356.6,1287.8,359.8z"
   id="path1508" />
		<path
   fill="#382D25"
   d="M1214.2,389.2c0,3.3-3.1,5.9-6.4,5.9s-5.9-2.7-5.9-5.9c0-3.3,2.7-5.5,5.9-5.5S1214.2,385.9,1214.2,389.2z"
   id="path1510" />
		<path
   fill="#382D25"
   d="M1228.7,475.7c0,3.3-3.1,5.9-6.4,5.9s-5.9-2.7-5.9-5.9s2.7-5.5,5.9-5.5S1228.7,472.4,1228.7,475.7z"
   id="path1512" />
		<path
   fill="#382D25"
   d="M1179,579c0,3.3-3.1,5.9-6.4,5.9s-5.9-2.7-5.9-5.9s2.7-5.5,5.9-5.5S1179,575.8,1179,579z"
   id="path1514" />
		<path
   fill="#382D25"
   d="M1228.8,539.3c-2,0-3.6,1.7-3.6,3.6v1c0,2,1.7,3.6,3.6,3.6s3.6-1.7,3.6-3.6v-1    C1232.4,540.9,1230.8,539.3,1228.8,539.3z"
   id="path1516" />
		<path
   fill="#382D25"
   d="M1136.5,539.3c-2,0-3.6,1.7-3.6,3.6v1c0,2,1.7,3.6,3.6,3.6s3.6-1.7,3.6-3.6v-1    C1140.1,540.9,1138.5,539.3,1136.5,539.3z"
   id="path1518" />
		<path
   fill="#382D25"
   d="M1152.7,591.2c-0.7-3.7-3.8-5.8-7.1-6.4c0,0,0,0,0,0c-0.1,0-0.2,0-0.3,0c-0.1,0-0.2,0-0.3,0    c-3.4-1.2-7.5,0.1-9.1,4.1c0,0.1-0.1,0.1-0.1,0.2c-0.1,0.2-0.3,0.5-0.4,0.7c0,0.1-0.1,0.1-0.1,0.2c-1.4,3.3-1.2,7.4,1.2,10    c1.8,2,4.4,2.8,6.9,3.1c1.3,0.7,3,0.7,4.2-0.1c0.4-0.3,0.8-0.7,1.1-1.1c1-0.7,1.9-1.7,2.5-2.9c0.4-0.8,0.7-1.6,0.8-2.5    C1152.7,594.9,1153,593,1152.7,591.2z"
   id="path1520" />
		<path
   fill="#382D25"
   d="M1119.9,609.8c-2,0-3.6,1.7-3.6,3.6v1c0,2,1.7,3.6,3.6,3.6c2,0,3.6-1.7,3.6-3.6v-1    C1123.5,611.5,1121.9,609.8,1119.9,609.8z"
   id="path1522" />
		<path
   fill="#382D25"
   d="M1168.1,608.8c-1.4-1.4-3.7-1.4-5.1,0l-1,1c-1.4,1.4-1.4,3.7,0,5.1s3.7,1.4,5.1,0c0.3-0.3,0.7-0.7,1-1    C1169.5,612.6,1169.5,610.2,1168.1,608.8z"
   id="path1524" />
		<path
   fill="#382D25"
   d="M1180,492.1c-5.7,0-10.4,4.7-10.4,10.4v1c0,5.7,4.7,10.4,10.4,10.4s10.4-4.7,10.4-10.4v-1    C1190.4,496.8,1185.7,492.1,1180,492.1z"
   id="path1526" />
		<path
   fill="#382D25"
   d="M1160.3,470.8c-4.7,0-4.7,7.3,0,7.3S1165,470.8,1160.3,470.8z"
   id="path1528" />
		<path
   fill="#382D25"
   d="M1245.4,363.4c-5.7,0-10.4,4.7-10.4,10.4v1c0,5.7,4.7,10.4,10.4,10.4c5.7,0,10.4-4.7,10.4-10.4v-1    C1255.8,368.2,1251.1,363.4,1245.4,363.4z"
   id="path1530" />
		<path
   fill="#382D25"
   d="M1488.2,299.1h-1c-5.7,0-10.4,4.7-10.4,10.4s4.7,10.4,10.4,10.4h1c5.7,0,10.4-4.7,10.4-10.4    S1493.8,299.1,1488.2,299.1z"
   id="path1532" />
		<path
   fill="#382D25"
   d="M1529.7,331.3c-9.4,0-9.4,14.5,0,14.5C1539,345.8,1539,331.3,1529.7,331.3z"
   id="path1534" />
		<path
   fill="#382D25"
   d="M1233,402.9c-4,0-7.3,3.3-7.3,7.3v1c0,4,3.3,7.3,7.3,7.3s7.3-3.3,7.3-7.3v-1    C1240.2,406.2,1236.9,402.9,1233,402.9z"
   id="path1536" />
		<path
   fill="#382D25"
   d="M1298.3,315.7h-1c-3.4,0-6.2,2.8-6.2,6.2s2.8,6.2,6.2,6.2h1c3.4,0,6.2-2.8,6.2-6.2    S1301.7,315.7,1298.3,315.7z"
   id="path1538" />
		<path
   fill="#382D25"
   d="M1389.6,291.9c-2.8,0-5.2,2.4-5.2,5.2v1c0,2.8,2.4,5.2,5.2,5.2c2.8,0,5.2-2.4,5.2-5.2v-1    C1394.8,294.2,1392.4,291.9,1389.6,291.9z"
   id="path1540" />
		<path
   fill="#382D25"
   d="M1236.1,506.1c-6,0-6,9.3,0,9.3C1242.1,515.4,1242.1,506.1,1236.1,506.1z"
   id="path1542" />
		<path
   fill="#382D25"
   d="M1207,522.7c-6,0-6,9.3,0,9.3C1213,532,1213,522.7,1207,522.7z"
   id="path1544" />
		<path
   fill="#382D25"
   d="M1164.5,543.4c-2.5,0-4.7,2.1-4.7,4.7v1c0,2.5,2.1,4.7,4.7,4.7s4.7-2.1,4.7-4.7v-1    C1169.2,545.6,1167,543.4,1164.5,543.4z"
   id="path1546" />
		<path
   fill="#382D25"
   d="M1141.7,503c-6,0-6,9.3,0,9.3C1147.7,512.3,1147.7,503,1141.7,503z"
   id="path1548" />
		<path
   fill="#382D25"
   d="M1222.6,524.8c-6,0-6,9.3,0,9.3C1228.6,534.1,1228.6,524.8,1222.6,524.8z"
   id="path1550" />
		<path
   fill="#382D25"
   d="M1238.1,449c-6,0-6,9.3,0,9.3C1244.2,458.4,1244.2,449,1238.1,449z"
   id="path1552" />
		<path
   fill="#382D25"
   d="M1211.2,428.3c-6,0-6,9.3,0,9.3C1217.2,437.6,1217.2,428.3,1211.2,428.3z"
   id="path1554" />
		<path
   fill="#382D25"
   d="M1176.9,420c-2.5,0-4.7,2.1-4.7,4.7v1c0,2.5,2.1,4.7,4.7,4.7s4.7-2.1,4.7-4.7v-1    C1181.6,422.1,1179.5,420,1176.9,420z"
   id="path1556" />
		<path
   fill="#382D25"
   d="M1188.3,589.1c-6,0-6,9.3,0,9.3C1194.4,598.4,1194.4,589.1,1188.3,589.1z"
   id="path1558" />
		<path
   fill="#382D25"
   d="M1142.7,620.7c-5.4,0-5.4,8.3,0,8.3C1148,629,1148,620.7,1142.7,620.7z"
   id="path1560" />
		<path
   fill="#382D25"
   d="M1130.2,562.6c-2.3,0-4.1,1.9-4.1,4.1v1c0,2.3,1.9,4.1,4.1,4.1s4.1-1.9,4.1-4.1v-1    C1134.4,564.5,1132.5,562.6,1130.2,562.6z"
   id="path1562" />
		<path
   fill="#382D25"
   d="M1272.4,388.3c-5.4,0-5.4,8.3,0,8.3C1277.7,396.6,1277.7,388.3,1272.4,388.3z"
   id="path1564" />
		<path
   fill="#382D25"
   d="M1258.9,353.1c-5.4,0-5.4,8.3,0,8.3C1264.2,361.4,1264.2,353.1,1258.9,353.1z"
   id="path1566" />
		<path
   fill="#382D25"
   d="M1306.6,357.2c-2.3,0-4.1,1.9-4.1,4.1v1c0,2.3,1.9,4.1,4.1,4.1c2.3,0,4.1-1.9,4.1-4.1v-1    C1310.8,359.1,1308.9,357.2,1306.6,357.2z"
   id="path1568" />
		<path
   fill="#382D25"
   d="M1305.6,333.4c-5.4,0-5.4,8.3,0,8.3C1310.9,341.7,1310.9,333.4,1305.6,333.4z"
   id="path1570" />
		<path
   fill="#382D25"
   d="M1317,303.3c-5.4,0-5.4,8.3,0,8.3C1322.3,311.6,1322.3,303.3,1317,303.3z"
   id="path1572" />
		<path
   fill="#382D25"
   d="M1329.4,339.6c-2.3,0-4.1,1.9-4.1,4.1v1c0,2.3,1.9,4.1,4.1,4.1s4.1-1.9,4.1-4.1v-1    C1333.6,341.5,1331.7,339.6,1329.4,339.6z"
   id="path1574" />
		<path
   fill="#382D25"
   d="M1383.4,335.4c-5.4,0-5.4,8.3,0,8.3C1388.7,343.7,1388.7,335.4,1383.4,335.4z"
   id="path1576" />
		<path
   fill="#382D25"
   d="M1368.7,307.6c-0.3-0.3-0.7-0.7-1-1c-1.6-1.6-4.3-1.6-5.9,0c-1.6,1.6-1.6,4.3,0,5.9c0.3,0.3,0.7,0.7,1,1    c1.6,1.6,4.3,1.6,5.9,0C1370.3,311.9,1370.3,309.2,1368.7,307.6z"
   id="path1578" />
		<path
   fill="#382D25"
   d="M1429,293.9c-5.4,0-5.4,8.3,0,8.3C1434.4,302.2,1434.4,293.9,1429,293.9z"
   id="path1580" />
		<path
   fill="#382D25"
   d="M1397.9,316.8c-5.4,0-5.4,8.3,0,8.3S1403.3,316.8,1397.9,316.8z"
   id="path1582" />
		<path
   fill="#382D25"
   d="M1384.4,311.6c-5.4,0-5.4,8.3,0,8.3C1389.8,319.9,1389.8,311.6,1384.4,311.6z"
   id="path1584" />
		<path
   fill="#382D25"
   d="M1447.7,305.3c-5.4,0-5.4,8.3,0,8.3C1453.1,313.6,1453.1,305.3,1447.7,305.3z"
   id="path1586" />
		<path
   fill="#382D25"
   d="M1473.6,346.8c-4,0-4,6.2,0,6.2C1477.7,353.1,1477.7,346.8,1473.6,346.8z"
   id="path1588" />
		<path
   fill="#382D25"
   d="M1486.1,354.1c-4,0-4,6.2,0,6.2C1490.1,360.3,1490.1,354.1,1486.1,354.1z"
   id="path1590" />
		<path
   fill="#382D25"
   d="M1493.4,328.2c-4,0-4,6.2,0,6.2S1497.4,328.2,1493.4,328.2z"
   id="path1592" />
		<path
   fill="#382D25"
   d="M1463.3,314.7c-1.7,0-3.1,1.4-3.1,3.1v1c0,1.7,1.4,3.1,3.1,3.1s3.1-1.4,3.1-3.1v-1    C1466.4,316.1,1465,314.7,1463.3,314.7z"
   id="path1594" />
		<path
   fill="#382D25"
   d="M1524.5,307.4h-1c-1.7,0-3.1,1.4-3.1,3.1s1.4,3.1,3.1,3.1h1c1.7,0,3.1-1.4,3.1-3.1    S1526.2,307.4,1524.5,307.4z"
   id="path1596" />
		<path
   fill="#382D25"
   d="M1554.7,341.5c-1.2-1.2-3.2-1.2-4.4,0c-0.3,0.3-0.7,0.7-1,1c-1.2,1.2-1.2,3.2,0,4.4c1.2,1.2,3.2,1.2,4.4,0    l1-1C1555.9,344.7,1555.9,342.7,1554.7,341.5z"
   id="path1598" />
		<path
   fill="#382D25"
   d="M1538,355.1c-4,0-4,6.2,0,6.2S1542,355.1,1538,355.1z"
   id="path1600" />
		<path
   fill="#382D25"
   d="M1458.1,346.8c-1.7,0-3.1,1.4-3.1,3.1v1c0,1.7,1.4,3.1,3.1,3.1s3.1-1.4,3.1-3.1v-1    C1461.2,348.3,1459.8,346.8,1458.1,346.8z"
   id="path1602" />
		<path
   fill="#382D25"
   d="M1399.1,342.6c-1.2-1.2-3.2-1.2-4.4,0c-0.3,0.3-0.7,0.7-1,1c-1.2,1.2-1.2,3.2,0,4.4s3.2,1.2,4.4,0l1-1    C1400.3,345.8,1400.3,343.8,1399.1,342.6z"
   id="path1604" />
		<path
   fill="#382D25"
   d="M1255.8,411.2c-4,0-4,6.2,0,6.2S1259.8,411.2,1255.8,411.2z"
   id="path1606" />
		<path
   fill="#382D25"
   d="M1271.3,332.3c-4,0-4,6.2,0,6.2C1275.4,338.5,1275.4,332.3,1271.3,332.3z"
   id="path1608" />
	</g>
</g>
<path
   fill="#382D25"
   d="M1124,640.4c-5.4,0-5.4,8.3,0,8.3C1129.4,648.7,1129.4,640.4,1124,640.4z"
   id="path1614" />
</svg>
