<?xml version="1.0" encoding="UTF-8" standalone="no"?>
<!DOCTYPE svg PUBLIC "-//W3C//DTD SVG 1.1//EN" "http://www.w3.org/Graphics/SVG/1.1/DTD/svg11.dtd">
<svg width="100%" height="100%" viewBox="0 0 5 5" version="1.1" xmlns="http://www.w3.org/2000/svg" xmlns:xlink="http://www.w3.org/1999/xlink" xml:space="preserve" xmlns:serif="http://www.serif.com/" style="fill-rule:evenodd;clip-rule:evenodd;stroke-linejoin:round;stroke-miterlimit:2;">
    <g transform="matrix(0.25,0,0,0.25,0,0)">
        <rect x="0" y="0" width="18" height="18" style="fill:none;fill-rule:nonzero;"/>
        <path d="M15.705,8.25C15.36,5.123 12.877,2.64 9.75,2.295L9.75,0.75L8.25,0.75L8.25,2.295C5.123,2.64 2.64,5.123 2.295,8.25L0.75,8.25L0.75,9.75L2.295,9.75C2.64,12.878 5.123,15.36 8.25,15.705L8.25,17.25L9.75,17.25L9.75,15.705C12.878,15.36 15.36,12.878 15.705,9.75L17.25,9.75L17.25,8.25L15.705,8.25ZM9,14.25C6.097,14.25 3.75,11.903 3.75,9C3.75,6.097 6.097,3.75 9,3.75C11.903,3.75 14.25,6.097 14.25,9C14.25,11.903 11.903,14.25 9,14.25Z" style="fill-rule:nonzero;"/>
    </g>
</svg>
